{"glyphs":{"0":{"ha":464,"x_min":44,"x_max":419,"o":"m 267 936 q 232 979 267 979 q 197 936 197 979 l 197 175 q 232 132 197 132 q 267 175 267 132 l 267 936 m 419 244 q 232 -21 419 -21 q 44 244 44 -21 l 44 867 q 232 1132 44 1132 q 419 867 419 1132 l 419 244 z "},"1":{"ha":279,"x_min":21,"x_max":235,"o":"m 21 1021 q 82 1085 82 1021 l 82 1132 l 235 1132 l 235 -21 l 82 -21 l 82 868 l 21 868 l 21 1021 z "},"2":{"ha":464,"x_min":44,"x_max":419,"o":"m 44 211 q 158 531 44 363 q 267 825 267 690 l 267 936 q 232 979 267 979 q 197 936 197 979 l 197 744 l 44 744 l 44 867 q 232 1132 44 1132 q 419 867 419 1132 l 419 806 q 306 481 419 649 q 226 330 253 401 q 199 196 200 258 l 199 132 l 419 132 l 419 -21 l 44 -21 l 44 211 z "},"3":{"ha":464,"x_min":44,"x_max":419,"o":"m 267 936 q 232 979 267 979 q 197 936 197 979 l 197 744 l 44 744 l 44 867 q 232 1132 44 1132 q 419 867 419 1132 l 419 756 q 350 567 419 624 q 419 378 419 510 l 419 244 q 232 -21 419 -21 q 44 244 44 -21 l 44 403 l 197 403 l 197 175 q 232 132 197 132 q 267 175 267 132 l 267 447 q 232 490 267 489 l 176 490 l 176 643 l 239 643 q 267 686 267 643 l 267 936 z "},"4":{"ha":461,"x_min":10,"x_max":440,"o":"m 238 354 l 238 650 l 213 531 l 163 354 l 238 354 m 10 340 l 243 1132 l 383 1132 l 383 354 l 440 354 l 440 201 l 383 201 l 383 -21 l 238 -21 l 238 201 l 10 201 l 10 340 z "},"5":{"ha":467,"x_min":44,"x_max":422,"o":"m 44 1132 l 419 1132 l 419 979 l 197 979 l 197 675 q 263 710 211 710 q 422 444 422 710 l 422 244 q 235 -21 422 -21 q 47 244 47 -21 l 47 403 l 200 403 l 200 175 q 235 132 200 132 q 269 175 269 132 l 269 514 q 224 567 269 567 q 178 517 186 567 l 44 517 l 44 1132 z "},"6":{"ha":464,"x_min":44,"x_max":419,"o":"m 267 510 q 232 554 267 554 q 197 514 200 554 l 197 175 q 232 132 197 132 q 267 175 267 132 l 267 510 m 419 744 l 267 744 l 267 936 q 232 979 267 979 q 197 936 197 979 l 197 674 q 274 707 215 707 q 419 442 419 707 l 419 244 q 232 -21 419 -21 q 44 244 44 -21 l 44 867 q 232 1132 44 1132 q 419 867 419 1132 l 419 744 z "},"7":{"ha":407,"x_min":15,"x_max":392,"o":"m 15 1132 l 392 1132 l 392 982 q 265 524 300 775 q 228 -21 229 274 l 76 -21 q 114 504 76 260 q 193 856 151 747 q 249 979 236 965 l 15 979 l 15 1132 z "},"8":{"ha":464,"x_min":44,"x_max":419,"o":"m 267 936 q 232 979 267 979 q 197 936 197 979 l 197 686 q 233 643 197 646 q 267 686 267 643 l 267 936 m 267 447 q 233 490 267 486 q 197 447 197 490 l 197 175 q 232 132 197 132 q 267 175 267 132 l 267 447 m 419 756 q 350 567 419 624 q 419 378 419 510 l 419 244 q 232 -21 419 -21 q 44 244 44 -21 l 44 378 q 114 567 44 513 q 44 756 44 621 l 44 867 q 232 1132 44 1132 q 419 867 419 1132 l 419 756 z "},"9":{"ha":464,"x_min":44,"x_max":419,"o":"m 197 601 q 232 557 197 557 q 267 596 265 557 l 267 936 q 232 979 267 979 q 197 936 197 979 l 197 601 m 44 367 l 197 367 l 197 175 q 232 132 197 132 q 267 175 267 132 l 267 424 q 218 404 251 404 q 44 669 44 404 l 44 867 q 232 1132 44 1132 q 419 867 419 1132 l 419 244 q 232 -21 419 -21 q 44 244 44 -21 l 44 367 z "},"!":{"ha":251,"x_min":49,"x_max":203,"o":"m 49 132 l 203 132 l 203 -21 l 49 -21 l 49 132 m 203 560 l 174 201 l 78 201 l 49 556 l 49 1132 l 203 1132 l 203 560 z "},"\"":{"ha":278,"x_min":39,"x_max":331,"o":"m 194 1132 l 331 1132 l 331 997 l 301 813 l 224 813 l 194 997 l 194 1132 m 39 1132 l 175 1132 l 175 997 l 146 813 l 68 813 l 39 997 l 39 1132 z "},"#":{"ha":553,"x_min":-10,"x_max":564,"o":"m 231 661 l 301 661 l 321 735 l 249 735 l 231 661 m 72 851 l 161 851 l 226 1099 l 347 1099 l 282 851 l 351 851 l 417 1099 l 535 1099 l 469 851 l 564 851 l 533 735 l 438 735 l 418 661 l 513 661 l 481 546 l 388 546 l 319 299 l 204 299 l 271 546 l 197 546 l 132 299 l 14 299 l 81 546 l -10 546 l 21 661 l 111 661 l 131 735 l 42 735 l 72 851 z "},"$":{"ha":447,"x_min":44,"x_max":403,"o":"m 236 135 q 250 175 250 143 l 250 303 q 236 379 250 342 l 236 135 m 213 976 q 197 936 197 968 l 197 785 q 213 722 197 760 l 213 976 m 236 1132 q 403 867 403 1121 l 403 744 l 250 744 l 250 936 q 236 975 250 967 l 236 676 q 263 635 247 657 q 296 589 278 613 q 403 342 403 444 l 403 244 q 236 -21 403 -11 l 236 -93 l 213 -93 l 213 -21 q 44 244 44 -12 l 44 403 l 197 403 l 197 175 q 213 133 197 142 l 213 432 q 151 525 189 478 q 44 796 44 665 l 44 867 q 213 1132 44 1124 l 213 1196 l 236 1196 l 236 1132 z "},"%":{"ha":735,"x_min":32,"x_max":692,"o":"m 190 990 q 171 1015 190 1015 q 153 990 153 1015 l 153 742 q 171 717 153 717 q 190 742 190 717 l 190 990 m 574 371 q 554 396 574 396 q 536 371 536 396 l 536 122 q 554 97 536 97 q 574 122 574 97 l 574 371 m 308 789 q 171 599 308 599 q 32 789 32 599 l 32 942 q 171 1133 32 1133 q 308 942 308 1133 l 308 789 m 692 169 q 554 -21 692 -21 q 415 169 415 -21 l 415 324 q 554 514 415 514 q 692 324 692 514 l 692 169 m 639 1132 l 175 -21 l 64 -21 l 528 1132 l 639 1132 z "},"&":{"ha":525,"x_min":19,"x_max":510,"o":"m 197 911 q 218 735 197 853 q 253 913 253 853 l 253 936 q 225 979 253 979 q 197 936 197 979 l 197 911 m 219 122 q 283 139 264 122 l 189 433 q 168 288 168 368 l 168 203 q 219 122 168 122 m 386 900 q 286 589 386 765 l 361 361 l 376 404 l 510 404 l 431 125 q 453 118 438 118 q 468 121 456 118 q 504 129 481 124 l 504 -21 l 426 -21 q 343 13 369 -21 q 219 -21 294 -21 q 19 244 19 -21 l 19 294 q 124 593 19 454 q 51 900 51 789 q 225 1132 51 1132 q 386 900 386 1132 z "},"'":{"ha":172,"x_min":39,"x_max":175,"o":"m 39 1132 l 175 1132 l 175 997 l 146 813 l 68 813 l 39 997 l 39 1132 z "},"(":{"ha":306,"x_min":31,"x_max":258,"o":"m 139 111 q 258 -24 139 -24 l 258 -132 q 31 133 31 -132 l 31 978 q 258 1243 31 1243 l 258 1135 q 139 1000 139 1135 l 139 111 z "},")":{"ha":306,"x_min":31,"x_max":257,"o":"m 149 1000 q 31 1135 149 1135 l 31 1243 q 257 978 257 1243 l 257 133 q 31 -132 257 -132 l 31 -24 q 149 111 149 -24 l 149 1000 z "},"*":{"ha":479,"x_min":17,"x_max":451,"o":"m 390 725 l 321 611 l 451 640 l 451 464 l 321 492 l 390 379 l 222 324 l 207 456 l 119 357 l 17 500 l 138 551 l 17 606 l 119 747 l 207 646 l 222 781 l 390 725 z "},"+":{"ha":414,"x_min":22,"x_max":390,"o":"m 272 751 l 272 632 l 390 632 l 390 501 l 272 501 l 272 382 l 142 382 l 142 501 l 22 501 l 22 632 l 142 632 l 142 751 l 272 751 z "},",":{"ha":199,"x_min":25,"x_max":167,"o":"m 25 154 l 167 154 l 167 22 q 65 -100 167 -100 l 42 -100 l 42 -35 q 75 -3 71 -36 l 25 -3 l 25 154 z "},"-":{"ha":272,"x_min":22,"x_max":250,"o":"m 22 632 l 250 632 l 250 501 l 22 501 l 22 632 z "},".":{"ha":199,"x_min":25,"x_max":167,"o":"m 25 154 l 167 154 l 167 -21 l 25 -21 l 25 154 z "},"/":{"ha":333,"x_min":-1,"x_max":331,"o":"m 331 1132 l 110 -21 l -1 -21 l 219 1132 l 331 1132 z "},":":{"ha":199,"x_min":25,"x_max":167,"o":"m 25 535 l 167 535 l 167 360 l 25 360 l 25 535 m 25 154 l 167 154 l 167 -21 l 25 -21 l 25 154 z "},";":{"ha":199,"x_min":25,"x_max":167,"o":"m 25 535 l 167 535 l 167 360 l 25 360 l 25 535 m 25 154 l 167 154 l 167 22 q 65 -100 167 -100 l 42 -100 l 42 -32 q 75 -3 71 -35 l 25 -3 l 25 154 z "},"<":{"ha":418,"x_min":22,"x_max":394,"o":"m 394 336 l 22 497 l 22 635 l 394 794 l 394 686 l 114 568 l 394 444 l 394 336 z "},"=":{"ha":372,"x_min":22,"x_max":339,"o":"m 22 699 l 339 699 l 339 579 l 22 579 l 22 699 m 22 510 l 339 510 l 339 390 l 22 390 l 22 510 z "},">":{"ha":418,"x_min":22,"x_max":394,"o":"m 22 794 l 394 633 l 394 496 l 22 336 l 22 444 l 301 561 l 22 686 l 22 794 z "},"?":{"ha":469,"x_min":44,"x_max":419,"o":"m 128 132 l 282 132 l 282 -21 l 128 -21 l 128 132 m 282 201 l 128 201 l 128 397 q 201 636 128 550 q 249 724 232 674 q 267 842 267 775 l 267 936 q 232 979 267 979 q 197 936 197 979 l 197 744 l 44 744 l 44 867 q 232 1132 44 1132 q 419 867 419 1132 l 419 824 q 346 579 419 665 q 282 382 282 503 l 282 201 z "},"@":{"ha":636,"x_min":40,"x_max":594,"o":"m 340 485 q 293 442 293 471 l 293 396 q 317 367 293 367 q 340 396 340 367 l 340 485 m 203 447 q 217 516 203 492 q 268 564 232 540 q 315 592 293 579 q 340 625 338 606 l 340 701 q 319 729 340 729 q 299 701 299 729 l 299 617 l 210 617 l 210 689 q 319 836 210 836 q 431 689 431 836 l 431 396 q 460 368 431 368 q 489 396 489 368 l 489 801 q 315 911 489 911 q 149 801 149 911 l 149 306 q 177 226 149 256 q 268 196 206 196 l 565 196 l 565 94 l 289 94 q 40 271 40 94 l 40 775 q 317 1021 40 1021 q 594 775 594 1021 l 594 403 q 461 261 594 261 q 417 267 436 261 q 381 297 397 274 q 311 261 353 261 q 203 408 203 261 l 203 447 z "},"A":{"ha":449,"x_min":-3,"x_max":451,"o":"m 192 307 l 256 307 l 232 518 l 224 642 l 215 517 l 192 307 m -3 -21 l 150 1132 l 299 1132 l 451 -21 l 297 -21 l 275 146 l 171 146 l 151 -21 l -3 -21 z "},"B":{"ha":464,"x_min":44,"x_max":419,"o":"m 267 936 q 232 979 267 979 l 197 979 l 197 643 l 233 643 q 267 686 267 643 l 267 936 m 267 447 q 233 490 267 486 l 197 490 l 197 132 l 232 132 q 267 175 267 132 l 267 447 m 419 756 q 356 567 419 622 q 419 378 419 511 l 419 244 q 232 -21 419 -21 l 44 -21 l 44 1132 l 232 1132 q 419 867 419 1132 l 419 756 z "},"C":{"ha":453,"x_min":44,"x_max":414,"o":"m 267 403 l 414 403 l 414 244 q 232 -21 414 -21 q 44 244 44 -21 l 44 867 q 232 1132 44 1132 q 414 867 414 1132 l 414 744 l 267 744 l 267 936 q 232 979 267 979 q 197 936 197 979 l 197 175 q 232 132 197 132 q 267 175 267 132 l 267 403 z "},"D":{"ha":464,"x_min":44,"x_max":419,"o":"m 267 936 q 232 979 267 979 l 197 979 l 197 132 l 232 132 q 267 175 267 132 l 267 936 m 419 244 q 232 -21 419 -21 l 44 -21 l 44 1132 l 232 1132 q 419 867 419 1132 l 419 244 z "},"E":{"ha":396,"x_min":44,"x_max":368,"o":"m 197 490 l 197 132 l 368 132 l 368 -21 l 44 -21 l 44 1132 l 368 1132 l 368 979 l 197 979 l 197 643 l 294 643 l 294 490 l 197 490 z "},"F":{"ha":389,"x_min":44,"x_max":368,"o":"m 197 490 l 197 -21 l 44 -21 l 44 1132 l 368 1132 l 368 979 l 197 979 l 197 643 l 294 643 l 294 490 l 197 490 z "},"G":{"ha":460,"x_min":44,"x_max":425,"o":"m 226 532 l 424 532 l 424 -31 l 351 35 q 232 -21 313 -21 q 44 244 44 -21 l 44 867 q 233 1132 44 1132 q 425 867 425 1132 l 425 744 l 276 744 l 276 936 q 233 979 276 979 q 197 936 197 979 l 197 175 q 232 132 197 132 q 275 175 275 132 l 275 381 l 226 381 l 226 532 z "},"H":{"ha":464,"x_min":44,"x_max":419,"o":"m 197 643 l 267 643 l 267 1132 l 419 1132 l 419 -21 l 267 -21 l 267 490 l 197 490 l 197 -21 l 44 -21 l 44 1132 l 197 1132 l 197 643 z "},"I":{"ha":242,"x_min":44,"x_max":197,"o":"m 44 -21 l 44 1132 l 197 1132 l 197 -21 l 44 -21 z "},"J":{"ha":304,"x_min":28,"x_max":267,"o":"m 114 1132 l 267 1132 l 267 244 q 79 -21 267 -21 l 28 -21 l 28 132 l 79 132 q 114 175 114 132 l 114 1132 z "},"K":{"ha":492,"x_min":44,"x_max":497,"o":"m 44 -21 l 44 1132 l 197 1132 l 197 742 l 325 1132 l 486 1132 l 292 569 l 497 -21 l 335 -21 l 197 396 l 197 -21 l 44 -21 z "},"L":{"ha":383,"x_min":44,"x_max":368,"o":"m 197 132 l 368 132 l 368 -21 l 44 -21 l 44 1132 l 197 1132 l 197 132 z "},"M":{"ha":642,"x_min":44,"x_max":597,"o":"m 44 -21 l 44 1132 l 246 1132 l 301 683 l 318 486 l 336 682 l 392 1132 l 597 1132 l 597 -21 l 456 -21 l 456 593 l 436 382 l 383 -21 l 256 -21 l 203 386 l 186 579 l 186 -21 l 44 -21 z "},"N":{"ha":500,"x_min":44,"x_max":456,"o":"m 211 386 l 186 565 l 186 -21 l 44 -21 l 44 1132 l 217 1132 l 290 722 l 314 547 l 314 1132 l 456 1132 l 456 -21 l 283 -21 l 211 386 z "},"O":{"ha":464,"x_min":44,"x_max":419,"o":"m 267 936 q 232 979 267 979 q 197 936 197 979 l 197 175 q 232 132 197 132 q 267 175 267 132 l 267 936 m 419 244 q 232 -21 419 -21 q 44 244 44 -21 l 44 867 q 232 1132 44 1132 q 419 867 419 1132 l 419 244 z "},"P":{"ha":469,"x_min":44,"x_max":442,"o":"m 197 979 l 197 688 l 238 688 q 289 742 289 688 l 289 925 q 236 979 289 979 l 197 979 m 197 535 l 197 -21 l 44 -21 l 44 1132 l 236 1132 q 442 856 442 1132 l 442 811 q 238 535 442 535 l 197 535 z "},"Q":{"ha":464,"x_min":44,"x_max":419,"o":"m 267 936 q 232 979 267 979 q 197 936 197 979 l 197 175 q 232 132 197 132 q 267 175 267 132 l 267 936 m 419 244 q 286 -14 419 21 q 307 -44 288 -40 l 319 -44 q 419 -3 357 -44 l 419 -133 q 357 -156 385 -149 q 307 -162 329 -162 q 239 -146 269 -162 l 240 -146 q 174 -14 179 -114 q 44 244 44 25 l 44 867 q 232 1132 44 1132 q 419 867 419 1132 l 419 244 z "},"R":{"ha":465,"x_min":44,"x_max":443,"o":"m 197 979 l 197 643 l 238 643 q 289 697 289 643 l 289 925 q 236 979 289 979 l 197 979 m 217 490 l 197 490 l 197 -21 l 44 -21 l 44 1132 l 236 1132 q 442 878 442 1132 l 442 756 q 357 526 442 599 l 443 -21 l 288 -21 l 217 490 z "},"S":{"ha":447,"x_min":44,"x_max":403,"o":"m 250 936 q 224 979 250 979 q 197 936 197 979 l 197 785 q 296 589 197 721 q 403 342 403 444 l 403 244 q 224 -21 403 -21 q 44 244 44 -21 l 44 403 l 197 403 l 197 175 q 224 132 197 132 q 250 175 250 132 l 250 303 q 151 525 250 397 q 44 796 44 665 l 44 867 q 224 1132 44 1132 q 403 867 403 1132 l 403 744 l 250 744 l 250 936 z "},"T":{"ha":383,"x_min":4,"x_max":379,"o":"m 4 1132 l 379 1132 l 379 979 l 268 979 l 268 -21 l 115 -21 l 115 979 l 4 979 l 4 1132 z "},"U":{"ha":464,"x_min":44,"x_max":419,"o":"m 267 1132 l 419 1132 l 419 244 q 232 -21 419 -21 q 44 244 44 -21 l 44 1132 l 197 1132 l 197 175 q 232 132 197 132 q 267 175 267 132 l 267 1132 z "},"V":{"ha":449,"x_min":-3,"x_max":451,"o":"m 451 1132 l 299 -21 l 150 -21 l -3 1132 l 151 1132 l 224 546 l 297 1132 l 451 1132 z "},"W":{"ha":721,"x_min":-3,"x_max":724,"o":"m 724 1132 l 572 -21 l 433 -21 l 360 543 l 289 -21 l 150 -21 l -3 1132 l 151 1132 l 224 542 l 297 1132 l 424 1132 l 496 542 l 569 1132 l 724 1132 z "},"X":{"ha":465,"x_min":-6,"x_max":472,"o":"m 446 1132 l 313 599 l 472 -21 l 313 -21 l 250 261 l 233 390 l 217 258 l 154 -21 l -6 -21 l 153 599 l 21 1132 l 181 1132 l 213 968 l 232 813 l 251 964 l 285 1132 l 446 1132 z "},"Y":{"ha":444,"x_min":-6,"x_max":450,"o":"m 146 -21 l 146 471 l -6 1132 l 153 1132 l 201 882 l 222 715 l 243 881 l 290 1132 l 450 1132 l 299 471 l 299 -21 l 146 -21 z "},"Z":{"ha":415,"x_min":21,"x_max":394,"o":"m 32 1132 l 394 1132 l 394 969 l 181 132 l 394 132 l 394 -21 l 21 -21 l 21 131 l 244 979 l 32 979 l 32 1132 z "},"[":{"ha":306,"x_min":31,"x_max":258,"o":"m 139 1135 l 139 -24 l 258 -24 l 258 -133 l 31 -133 l 31 1243 l 258 1243 l 258 1135 l 139 1135 z "},"\\":{"ha":342,"x_min":4,"x_max":336,"o":"m 114 1132 l 336 -21 l 224 -21 l 4 1132 l 114 1132 z "},"]":{"ha":306,"x_min":31,"x_max":257,"o":"m 31 -25 l 149 -25 l 149 1135 l 31 1135 l 31 1243 l 257 1243 l 257 -132 l 31 -132 l 31 -25 z "},"^":{"ha":467,"x_min":4,"x_max":463,"o":"m 4 760 l 165 1132 l 303 1132 l 463 760 l 354 760 l 236 1039 l 113 760 l 4 760 z "},"_":{"ha":485,"x_min":0,"x_max":486,"o":"m 0 -90 l 486 -90 l 486 -243 l 0 -243 l 0 -90 z "},"`":{"ha":261,"x_min":-19,"x_max":276,"o":"m 169 1281 l 276 1168 l 167 1168 l -19 1281 l 169 1281 z "},"a":{"ha":418,"x_min":44,"x_max":374,"o":"m 236 335 q 217 323 226 329 q 201 310 208 317 l 203 311 q 182 247 182 294 l 182 156 q 206 119 182 119 q 236 156 236 119 l 236 335 m 44 258 q 65 346 44 308 q 114 411 85 383 q 176 460 143 439 q 236 500 210 482 l 236 669 q 213 704 236 704 q 192 669 192 704 l 192 494 l 54 494 l 54 629 q 213 846 54 846 q 374 629 374 846 l 374 -21 l 236 -21 l 236 15 q 165 -21 208 -21 q 44 196 44 -21 l 44 258 z "},"b":{"ha":419,"x_min":44,"x_max":375,"o":"m 238 669 q 210 704 238 704 q 182 669 182 704 l 182 156 q 210 119 182 119 q 238 156 238 119 l 238 669 m 44 1132 l 182 1132 l 182 836 q 240 846 207 846 q 375 629 375 846 l 375 196 q 229 -21 375 -21 q 133 26 168 -21 l 111 -21 l 44 -21 l 44 1132 z "},"c":{"ha":414,"x_min":44,"x_max":375,"o":"m 238 669 q 208 704 238 704 q 182 669 182 704 l 182 156 q 208 119 182 119 q 238 156 238 119 l 238 335 l 375 335 l 375 196 q 208 -21 375 -21 q 44 196 44 -21 l 44 629 q 208 846 44 846 q 375 629 375 846 l 375 494 l 238 494 l 238 669 z "},"d":{"ha":419,"x_min":44,"x_max":375,"o":"m 182 156 q 210 119 182 119 q 238 156 238 119 l 238 669 q 210 704 238 704 q 182 669 182 704 l 182 156 m 375 -21 l 238 -21 l 238 11 q 160 -21 203 -21 q 44 196 44 -21 l 44 629 q 172 846 44 846 q 238 821 218 846 l 238 1132 l 375 1132 l 375 -21 z "},"e":{"ha":419,"x_min":44,"x_max":375,"o":"m 182 513 l 238 513 l 238 669 q 208 704 238 704 q 182 669 182 704 l 182 513 m 182 374 l 182 156 q 208 119 182 119 q 238 156 238 119 l 238 335 l 375 335 l 375 196 q 208 -21 375 -21 q 44 196 44 -21 l 44 629 q 208 846 44 846 q 375 629 375 846 l 375 374 l 182 374 z "},"f":{"ha":238,"x_min":0,"x_max":238,"o":"m 0 846 l 36 846 l 36 915 q 238 1132 36 1132 l 238 990 q 174 956 174 990 l 174 846 l 217 846 l 217 704 l 174 704 l 174 -21 l 36 -21 l 36 704 l 0 704 l 0 846 z "},"g":{"ha":419,"x_min":43,"x_max":375,"o":"m 182 175 q 210 140 182 140 q 238 167 236 140 l 238 669 q 210 706 238 706 q 182 669 182 706 l 182 175 m 208 -76 q 238 -40 238 -76 l 238 22 q 160 -1 214 -1 q 44 215 44 -1 l 44 629 q 163 846 44 846 q 238 814 210 846 l 238 846 l 375 846 l 375 0 q 208 -217 375 -217 q 43 -24 61 -217 l 181 -24 q 208 -76 183 -76 z "},"h":{"ha":419,"x_min":44,"x_max":375,"o":"m 238 669 q 210 704 238 704 q 182 669 182 704 l 182 -21 l 44 -21 l 44 1132 l 182 1132 l 182 822 q 254 846 210 846 q 375 629 375 846 l 375 -21 l 238 -21 l 238 669 z "},"i":{"ha":226,"x_min":44,"x_max":182,"o":"m 182 939 l 44 939 l 44 1132 l 182 1132 l 182 939 m 182 -21 l 44 -21 l 44 846 l 182 846 l 182 -21 z "},"j":{"ha":235,"x_min":-22,"x_max":190,"o":"m 190 939 l 53 939 l 53 1132 l 190 1132 l 190 939 m -22 -75 q 53 -22 53 -75 l 53 846 l 190 846 l 190 10 q -22 -217 190 -217 l -22 -75 z "},"k":{"ha":414,"x_min":44,"x_max":415,"o":"m 44 1132 l 182 1132 l 182 549 l 208 656 l 271 846 l 415 846 l 264 408 l 414 -21 l 268 -21 l 206 168 l 182 269 l 182 -21 l 44 -21 l 44 1132 z "},"l":{"ha":203,"x_min":32,"x_max":169,"o":"m 32 1132 l 169 1132 l 169 -21 l 32 -21 l 32 1132 z "},"m":{"ha":611,"x_min":44,"x_max":567,"o":"m 429 669 q 401 704 429 704 q 375 671 375 704 l 375 -21 l 238 -21 l 238 669 q 210 704 238 704 q 182 669 182 704 l 182 -21 l 44 -21 l 44 846 l 182 846 l 182 822 q 254 846 210 846 q 331 807 296 846 q 432 846 365 846 q 567 629 567 846 l 567 -21 l 429 -21 l 429 669 z "},"n":{"ha":419,"x_min":44,"x_max":375,"o":"m 238 669 q 210 704 238 704 q 182 669 182 704 l 182 -21 l 44 -21 l 44 846 l 182 846 l 182 822 q 254 846 210 846 q 375 629 375 846 l 375 -21 l 238 -21 l 238 669 z "},"o":{"ha":419,"x_min":44,"x_max":375,"o":"m 238 669 q 208 704 238 704 q 182 669 182 704 l 182 156 q 208 119 182 119 q 238 156 238 119 l 238 669 m 375 196 q 208 -21 375 -21 q 44 196 44 -21 l 44 629 q 208 846 44 846 q 375 629 375 846 l 375 196 z "},"p":{"ha":419,"x_min":44,"x_max":375,"o":"m 238 669 q 210 706 238 706 q 182 669 182 706 l 182 156 q 210 121 182 121 q 238 156 238 121 l 238 669 m 44 846 l 182 846 l 182 814 q 260 846 214 846 q 375 629 375 846 l 375 196 q 260 -21 375 -21 q 182 4 208 -21 l 182 -217 l 44 -217 l 44 846 z "},"q":{"ha":419,"x_min":44,"x_max":375,"o":"m 182 156 q 210 121 182 121 q 238 156 238 121 l 238 669 q 210 706 238 706 q 182 669 182 706 l 182 156 m 375 -217 l 238 -217 l 238 4 q 160 -21 210 -21 q 44 196 44 -21 l 44 629 q 160 846 44 846 q 238 814 206 846 l 238 846 l 375 846 l 375 -217 z "},"r":{"ha":283,"x_min":44,"x_max":265,"o":"m 182 819 q 265 846 213 846 l 265 657 q 210 704 240 704 q 182 669 182 704 l 182 -21 l 44 -21 l 44 846 l 182 846 l 182 819 z "},"s":{"ha":382,"x_min":35,"x_max":350,"o":"m 215 674 q 192 710 215 710 q 171 674 171 710 l 171 597 q 256 436 171 538 q 350 207 350 317 q 192 -21 350 -21 q 35 211 35 -21 l 35 268 l 163 268 l 163 151 q 188 115 163 115 q 213 151 213 115 l 213 228 q 129 378 213 290 q 35 615 35 476 q 189 846 35 846 q 344 615 344 846 l 344 551 l 215 551 l 215 674 z "},"t":{"ha":260,"x_min":7,"x_max":235,"o":"m 7 846 l 46 846 l 46 1132 l 183 1132 l 183 846 l 228 846 l 228 704 l 183 704 l 183 156 q 235 121 183 121 l 235 -21 q 46 196 46 -21 l 46 704 l 7 704 l 7 846 z "},"u":{"ha":419,"x_min":44,"x_max":375,"o":"m 182 156 q 210 121 182 121 q 238 156 238 121 l 238 846 l 375 846 l 375 -21 l 238 -21 l 238 3 q 165 -21 210 -21 q 44 196 44 -21 l 44 846 l 182 846 l 182 156 z "},"v":{"ha":375,"x_min":4,"x_max":371,"o":"m 144 846 l 169 644 l 186 453 l 204 647 l 229 846 l 371 846 l 256 -21 l 119 -21 l 4 846 l 144 846 z "},"w":{"ha":568,"x_min":4,"x_max":564,"o":"m 338 846 l 364 632 l 379 453 l 394 632 l 422 846 l 564 846 l 449 -21 l 326 -21 l 300 172 l 283 351 l 267 174 l 242 -21 l 119 -21 l 4 846 l 144 846 l 169 639 l 186 453 l 203 640 l 229 846 l 338 846 z "},"x":{"ha":371,"x_min":0,"x_max":371,"o":"m 260 407 l 371 -21 l 225 -21 l 206 68 l 186 213 l 167 74 l 146 -21 l 0 -21 l 110 407 l 1 846 l 149 846 l 168 750 l 185 606 l 201 749 l 221 846 l 369 846 l 260 407 z "},"y":{"ha":383,"x_min":8,"x_max":375,"o":"m 26 -76 q 124 0 111 -71 l 8 846 l 149 846 l 176 621 l 190 411 l 204 618 l 233 846 l 375 846 l 263 -3 q 187 -165 247 -112 q 26 -217 126 -217 l 26 -76 z "},"z":{"ha":378,"x_min":39,"x_max":339,"o":"m 43 846 l 339 846 l 339 707 l 181 119 l 338 119 l 338 -21 l 39 -21 l 39 108 l 203 704 l 43 704 l 43 846 z "},"{":{"ha":403,"x_min":11,"x_max":369,"o":"m 250 111 q 369 -24 250 -24 l 369 -132 q 142 133 142 -132 l 142 396 l 11 554 l 142 717 l 142 978 q 369 1243 142 1243 l 369 1135 q 250 1000 250 1135 l 250 683 l 146 556 l 250 426 l 250 111 z "},"|":{"ha":167,"x_min":29,"x_max":140,"o":"m 140 1132 l 140 -21 l 29 -21 l 29 1132 l 140 1132 z "},"}":{"ha":403,"x_min":17,"x_max":375,"o":"m 136 1000 q 17 1135 136 1135 l 17 1243 q 244 978 244 1243 l 244 714 l 375 557 l 244 393 l 244 133 q 17 -132 244 -132 l 17 -24 q 136 111 136 -24 l 136 428 l 239 556 l 136 685 l 136 1000 z "},"~":{"ha":1964,"x_min":86,"x_max":1878,"o":"m 86 407 l 88 407 l 88 472 l 181 472 l 181 511 l 156 511 l 156 633 l 181 633 l 181 676 l 156 676 l 156 728 l 765 728 l 765 664 q 732 682 756 682 q 668 575 668 682 q 735 469 668 469 q 778 496 756 469 l 778 472 l 811 472 l 811 728 l 1331 728 l 1331 692 l 1378 692 l 1378 728 l 1878 728 l 1878 0 l 86 0 l 86 407 m 1303 472 l 1303 603 q 1238 678 1303 678 q 1194 644 1204 678 q 1156 678 1182 678 q 1118 644 1132 678 l 1118 676 l 1074 676 l 1074 511 l 1047 511 l 1047 472 l 1144 472 l 1144 511 l 1118 511 l 1118 596 q 1144 628 1118 628 q 1165 596 1165 628 l 1165 472 l 1236 472 l 1236 511 l 1210 511 l 1210 596 q 1236 626 1210 626 q 1257 596 1257 626 l 1257 472 l 1303 472 m 1369 371 l 1292 371 l 1292 108 l 1336 108 l 1336 278 l 1340 278 l 1353 108 l 1433 108 l 1433 371 l 1389 371 l 1389 201 l 1385 201 l 1369 371 m 667 371 l 667 108 l 776 108 l 792 138 l 792 224 l 781 243 l 781 247 l 792 267 l 792 343 l 776 371 l 667 371 m 1147 343 l 1147 138 l 1161 108 l 1254 108 l 1271 138 l 1271 343 l 1256 371 l 1161 371 l 1147 343 m 376 371 l 376 108 l 429 108 l 429 224 l 444 224 l 444 108 l 501 108 l 501 214 l 481 243 l 481 247 l 501 275 l 501 343 l 486 371 l 376 371 m 356 407 l 401 407 l 401 485 q 435 468 411 468 q 499 574 499 468 q 432 679 499 679 q 389 651 413 679 l 389 676 l 356 676 l 356 407 m 660 572 q 583 681 660 681 q 508 572 508 681 q 583 467 508 467 q 660 572 660 467 m 1644 290 l 1697 290 l 1697 343 l 1683 371 l 1592 371 l 1576 343 l 1576 251 l 1593 224 l 1644 211 l 1644 158 l 1631 158 l 1631 197 l 1576 197 l 1576 138 l 1592 108 l 1682 108 l 1697 138 l 1697 238 l 1679 267 l 1631 278 l 1631 324 l 1644 324 l 1644 290 m 356 108 l 356 204 l 319 371 l 263 371 l 231 204 l 231 108 l 282 108 l 282 158 l 300 158 l 300 108 l 356 108 m 644 108 l 644 204 l 611 371 l 554 371 l 522 204 l 522 108 l 575 108 l 575 158 l 592 158 l 592 108 l 644 108 m 235 407 l 264 407 q 340 506 340 415 l 340 676 l 294 676 l 294 550 q 267 514 294 514 q 240 550 240 514 l 240 676 l 196 676 l 196 558 q 260 469 196 469 q 294 481 279 469 q 256 449 294 449 l 235 449 l 235 407 m 942 221 l 978 221 l 978 267 l 942 267 l 942 315 l 978 315 l 978 371 l 889 371 l 889 108 l 978 108 l 978 167 l 942 167 l 942 221 m 1092 217 l 1125 217 l 1125 263 l 1092 263 l 1092 315 l 1125 315 l 1125 371 l 1038 371 l 1038 108 l 1092 108 l 1092 217 m 1478 315 l 1478 108 l 1532 108 l 1532 315 l 1561 315 l 1561 371 l 1449 371 l 1449 315 l 1478 315 m 951 676 l 931 676 l 931 644 q 885 681 915 681 q 825 621 825 681 q 856 571 825 583 q 824 525 824 558 q 886 467 825 467 q 934 485 917 467 q 951 540 951 503 l 931 540 q 896 514 926 514 q 868 533 868 514 q 896 558 868 558 l 910 558 l 910 583 l 896 583 q 868 607 868 583 q 896 629 868 629 q 931 601 919 629 l 951 601 l 951 676 m 1522 674 l 1500 674 l 1500 644 q 1458 681 1483 681 q 1389 572 1389 681 q 1460 468 1389 468 q 1522 549 1510 468 l 1500 549 q 1465 517 1496 517 q 1433 572 1433 517 q 1465 629 1433 629 q 1500 592 1497 629 l 1522 592 l 1522 674 m 210 167 l 179 167 l 179 371 l 126 371 l 126 108 l 210 108 l 210 167 m 868 108 l 868 371 l 814 371 l 814 108 l 868 108 m 1028 511 l 1008 511 l 1008 601 q 1028 629 1008 629 q 1044 621 1036 629 l 1060 667 q 1036 678 1049 676 q 993 644 1007 678 l 993 676 l 967 676 l 967 472 l 1028 472 l 1028 511 m 1310 676 l 1310 633 l 1331 633 l 1331 472 l 1378 472 l 1378 676 l 1310 676 m 397 607 q 426 628 406 628 q 456 575 456 628 q 425 515 456 515 q 397 538 406 515 l 397 607 m 614 572 q 583 517 614 517 q 554 572 554 517 q 583 629 554 629 q 614 572 614 629 m 768 540 q 740 521 760 521 q 711 574 711 521 q 742 633 711 633 q 768 611 760 633 l 768 540 m 88 511 l 88 633 l 114 633 l 114 511 l 88 511 m 1200 158 l 1200 324 l 1215 324 l 1215 158 l 1200 158 m 88 676 l 88 728 l 114 728 l 114 676 l 88 676 m 282 197 l 282 224 l 290 293 l 293 293 l 300 224 l 300 197 l 282 197 m 575 197 l 575 224 l 582 293 l 586 293 l 592 224 l 592 197 l 575 197 m 721 224 l 736 224 l 736 158 l 721 158 l 721 224 m 721 267 l 721 324 l 736 324 l 736 267 l 721 267 m 429 267 l 429 324 l 444 324 l 444 267 l 429 267 z "},"‚":{"ha":199,"x_min":46,"x_max":188,"o":"m 46 154 l 188 154 l 188 22 q 86 -100 188 -100 l 63 -100 l 63 -35 q 96 -3 92 -36 l 46 -3 l 46 154 z "},"ƒ":{"ha":522,"x_min":-25,"x_max":533,"o":"m -25 -75 q 58 -17 42 -75 l 251 704 l 218 704 l 218 846 l 288 846 l 307 921 q 533 1132 364 1132 l 533 990 q 454 950 465 990 l 426 846 l 461 846 l 460 704 l 389 704 l 199 -6 q 113 -164 171 -111 q -25 -217 56 -217 l -25 -75 z "},"„":{"ha":351,"x_min":46,"x_max":365,"o":"m 224 154 l 365 154 l 365 22 q 264 -100 365 -100 l 240 -100 l 240 -35 q 274 -3 269 -36 l 224 -3 l 224 154 m 46 154 l 188 154 l 188 22 q 86 -100 188 -100 l 63 -100 l 63 -35 q 96 -3 92 -36 l 46 -3 l 46 154 z "},"…":{"ha":1279,"x_min":196,"x_max":1076,"o":"m 196 154 l 338 154 l 338 -21 l 196 -21 l 196 154 m 565 154 l 707 154 l 707 -21 l 565 -21 l 565 154 m 935 154 l 1076 154 l 1076 -21 l 935 -21 l 935 154 z "},"†":{"ha":400,"x_min":26,"x_max":369,"o":"m 26 1015 l 129 996 l 108 1099 l 285 1099 l 265 996 l 369 1018 l 369 842 l 260 861 l 281 26 l 115 26 l 135 861 l 26 842 l 26 1015 z "},"‡":{"ha":400,"x_min":25,"x_max":369,"o":"m 368 96 l 264 115 l 286 13 l 110 13 l 129 114 l 25 93 l 25 269 l 136 249 l 136 861 l 26 842 l 26 1015 l 129 996 l 108 1099 l 285 1099 l 265 996 l 369 1018 l 369 842 l 258 861 l 258 249 l 368 269 l 368 96 z "},"ˆ":{"ha":329,"x_min":-33,"x_max":364,"o":"m 128 1281 l 206 1281 l 364 1168 l 188 1168 l 167 1203 l 146 1168 l -33 1168 l 128 1281 z "},"‰":{"ha":1036,"x_min":32,"x_max":997,"o":"m 574 371 q 554 396 574 396 q 536 371 536 396 l 536 122 q 554 97 536 97 q 574 122 574 97 l 574 371 m 879 371 q 860 396 879 396 q 842 371 842 396 l 842 122 q 860 97 842 97 q 879 122 879 97 l 879 371 m 190 990 q 171 1015 190 1015 q 153 990 153 1015 l 153 742 q 171 717 153 717 q 190 742 190 717 l 190 990 m 308 789 q 171 599 308 599 q 32 789 32 599 l 32 942 q 171 1133 32 1133 q 308 942 308 1133 l 308 789 m 692 169 q 554 -21 692 -21 q 415 169 415 -21 l 415 324 q 554 514 415 514 q 692 324 692 514 l 692 169 m 997 169 q 860 -21 997 -21 q 721 169 721 -21 l 721 324 q 860 514 721 514 q 997 324 997 514 l 997 169 m 647 1132 l 183 -21 l 72 -21 l 536 1132 l 647 1132 z "},"Š":{"ha":447,"x_min":43,"x_max":440,"o":"m 271 936 q 244 979 271 979 q 218 936 218 979 l 218 785 q 317 589 218 721 q 424 342 424 444 l 424 244 q 244 -21 424 -21 q 65 244 65 -21 l 65 403 l 218 403 l 218 175 q 244 132 218 132 q 271 175 271 132 l 271 303 q 172 525 271 397 q 65 796 65 665 l 65 867 q 244 1132 65 1132 q 424 867 424 1132 l 424 744 l 271 744 l 271 936 m 279 1167 l 201 1167 l 43 1279 l 219 1279 l 240 1243 l 261 1279 l 440 1279 l 279 1167 z "},"‹":{"ha":532,"x_min":86,"x_max":464,"o":"m 274 358 l 463 28 l 317 28 l 86 358 l 317 688 l 464 688 l 274 358 z "},"Œ":{"ha":589,"x_min":44,"x_max":563,"o":"m 267 936 q 232 979 267 979 q 197 936 197 979 l 197 175 q 232 132 197 132 q 267 175 267 132 l 267 936 m 419 490 l 419 132 l 563 132 l 563 -21 l 267 -21 l 267 3 q 197 -21 226 -21 q 44 244 44 -21 l 44 867 q 194 1132 44 1132 q 267 1107 239 1132 l 267 1132 l 563 1132 l 563 979 l 419 979 l 419 643 l 489 643 l 489 490 l 419 490 z "},"‘":{"ha":181,"x_min":24,"x_max":165,"o":"m 165 878 l 24 878 l 24 1010 q 125 1132 24 1132 l 149 1132 l 149 1056 q 115 1035 121 1056 l 165 1035 l 165 878 z "},"’":{"ha":189,"x_min":32,"x_max":174,"o":"m 32 1133 l 174 1133 l 174 1001 q 72 879 174 879 l 49 879 l 49 956 q 82 976 71 956 l 32 976 l 32 1133 z "},"“":{"ha":340,"x_min":28,"x_max":336,"o":"m 169 878 l 28 878 l 28 1010 q 129 1132 28 1132 l 153 1132 l 153 1056 q 119 1035 125 1056 l 169 1035 l 169 878 m 336 878 l 194 878 l 194 1010 q 296 1132 194 1132 l 319 1132 l 319 1056 q 286 1035 292 1056 l 336 1035 l 336 878 z "},"”":{"ha":344,"x_min":28,"x_max":336,"o":"m 194 1132 l 336 1132 l 336 1000 q 235 878 336 878 l 211 878 l 211 954 q 244 975 238 954 l 194 975 l 194 1132 m 28 1132 l 169 1132 l 169 1000 q 68 878 169 878 l 44 878 l 44 954 q 78 975 71 954 l 28 975 l 28 1132 z "},"•":{"ha":676,"x_min":25,"x_max":656,"o":"m 25 454 q 50 577 25 519 q 117 677 75 635 q 217 744 160 719 q 340 769 275 769 q 463 744 406 769 q 563 677 521 719 q 631 577 606 635 q 656 454 656 519 q 631 331 656 389 q 563 231 606 274 q 463 164 521 189 q 340 139 406 139 q 217 164 275 139 q 117 231 160 189 q 50 331 75 274 q 25 454 25 389 z "},"–":{"ha":421,"x_min":22,"x_max":389,"o":"m 22 632 l 389 632 l 389 501 l 22 501 l 22 632 z "},"—":{"ha":650,"x_min":22,"x_max":621,"o":"m 22 632 l 621 632 l 621 501 l 22 501 l 22 632 z "},"˜":{"ha":331,"x_min":17,"x_max":317,"o":"m 17 1168 l 17 1192 q 40 1256 17 1231 q 100 1281 64 1281 q 133 1276 115 1281 q 167 1267 150 1272 q 201 1257 185 1261 q 229 1253 217 1253 l 231 1253 l 229 1253 q 236 1281 233 1256 l 317 1281 q 294 1195 317 1222 q 238 1168 272 1168 q 203 1172 221 1168 q 167 1181 185 1176 q 133 1190 149 1186 q 108 1194 118 1194 l 103 1194 q 97 1168 99 1194 l 17 1168 z "},"™":{"ha":711,"x_min":42,"x_max":642,"o":"m 42 1132 l 438 1132 l 474 831 l 511 1132 l 642 1132 l 642 658 l 535 658 l 535 851 l 506 658 l 449 658 l 415 854 l 415 658 l 310 658 l 310 1003 l 233 1003 l 233 658 l 107 658 l 107 1003 l 42 1003 l 42 1132 z "},"š":{"ha":382,"x_min":13,"x_max":410,"o":"m 236 674 q 213 710 236 710 q 192 674 192 710 l 192 597 q 276 436 192 538 q 371 207 371 317 q 213 -21 371 -21 q 56 211 56 -21 l 56 268 l 183 268 l 183 151 q 208 115 183 115 q 233 151 233 115 l 233 228 q 150 378 233 290 q 56 615 56 476 q 210 846 56 846 q 365 615 365 846 l 365 551 l 236 551 l 236 674 m 249 878 l 171 878 l 13 990 l 189 990 l 210 954 l 231 990 l 410 990 l 249 878 z "},"›":{"ha":544,"x_min":79,"x_max":456,"o":"m 79 28 l 271 358 l 79 688 l 229 688 l 456 360 l 228 28 l 79 28 z "},"œ":{"ha":582,"x_min":32,"x_max":556,"o":"m 363 513 l 418 513 l 418 669 q 389 704 418 704 q 363 669 363 704 l 363 513 m 225 669 q 196 704 225 704 q 169 669 169 704 l 169 156 q 196 119 169 119 q 225 156 225 119 l 225 669 m 363 374 l 363 156 q 389 119 363 119 q 418 156 418 119 l 418 335 l 556 335 l 556 196 q 389 -21 556 -21 q 293 17 331 -21 q 196 -21 253 -21 q 32 196 32 -21 l 32 629 q 196 846 32 846 q 293 807 254 846 q 389 846 331 846 q 556 629 556 846 l 556 374 l 363 374 z "},"Ÿ":{"ha":444,"x_min":15,"x_max":471,"o":"m 167 -21 l 167 471 l 15 1132 l 174 1132 l 222 882 l 243 715 l 264 881 l 311 1132 l 471 1132 l 319 471 l 319 -21 l 167 -21 m 90 1281 l 199 1281 l 199 1168 l 90 1168 l 90 1281 m 279 1168 l 279 1281 l 389 1281 l 389 1168 l 279 1168 z "},"¡":{"ha":238,"x_min":39,"x_max":193,"o":"m 193 783 l 39 783 l 39 936 l 193 936 l 193 783 m 39 356 l 68 714 l 164 714 l 193 360 l 193 -217 l 39 -217 l 39 356 z "},"£":{"ha":360,"x_min":18,"x_max":342,"o":"m 60 132 l 60 882 q 303 1132 60 1132 l 303 990 q 197 922 197 990 l 197 846 l 299 846 l 299 704 l 197 704 l 197 132 l 342 132 l 342 -21 l 18 -21 l 18 132 l 60 132 z "},"¤":{"ha":458,"x_min":28,"x_max":440,"o":"m 288 403 l 435 403 l 435 244 q 253 -21 435 -21 q 65 244 65 -21 l 65 867 q 253 1132 65 1132 q 435 867 435 1132 l 435 744 l 288 744 l 288 936 q 253 979 288 979 q 218 936 218 979 l 218 175 q 253 132 218 132 q 288 175 288 132 l 288 403 m 29 668 l 442 668 l 442 588 l 29 588 l 29 668 m 29 541 l 442 541 l 442 461 l 29 461 l 29 541 z "},"¥":{"ha":444,"x_min":15,"x_max":471,"o":"m 167 -21 l 167 471 l 15 1132 l 174 1132 l 222 882 l 243 715 l 264 881 l 311 1132 l 471 1132 l 319 471 l 319 -21 l 167 -21 m 61 527 l 439 527 l 439 439 l 61 439 l 61 527 m 61 388 l 439 388 l 439 300 l 61 300 l 61 388 z "},"¦":{"ha":167,"x_min":29,"x_max":140,"o":"m 140 -21 l 29 -21 l 29 392 l 140 392 l 140 -21 m 139 678 l 29 678 l 29 1132 l 139 1132 l 139 678 z "},"§":{"ha":390,"x_min":44,"x_max":346,"o":"m 215 590 q 197 619 213 619 l 194 619 q 175 592 175 619 l 175 519 q 194 490 175 490 q 215 519 215 490 l 215 590 m 215 978 q 194 1004 215 1004 q 175 978 175 1004 l 175 900 q 186 860 175 882 q 213 814 197 838 q 248 768 229 790 q 282 728 267 746 q 307 694 296 708 q 326 664 318 681 q 339 622 335 647 q 346 557 343 597 q 246 382 331 404 q 268 358 257 371 q 292 329 279 344 l 290 329 q 346 183 343 265 q 194 -21 346 -21 q 44 183 44 -21 l 44 196 l 175 196 l 175 133 q 194 104 175 104 q 215 133 215 104 q 133 313 215 214 l 135 313 q 44 524 44 417 q 128 721 44 688 q 44 926 44 817 q 194 1131 44 1131 q 346 926 346 1131 l 346 885 l 215 885 l 215 978 z "},"¨":{"ha":361,"x_min":33,"x_max":332,"o":"m 33 1281 l 142 1281 l 142 1168 l 33 1168 l 33 1281 m 222 1168 l 222 1281 l 332 1281 l 332 1168 l 222 1168 z "},"©":{"ha":947,"x_min":22,"x_max":926,"o":"m 486 697 q 464 724 486 724 q 444 697 444 724 l 444 413 q 464 385 444 385 q 486 413 486 385 l 486 485 l 610 485 l 610 447 q 464 260 610 260 q 322 447 322 260 l 322 663 q 464 850 322 850 q 610 663 610 850 l 610 614 l 486 614 l 486 697 m 132 561 q 159 430 132 492 q 232 322 186 368 q 340 249 278 276 q 471 222 401 222 q 602 249 540 222 q 710 322 664 276 q 783 430 756 368 q 810 561 810 492 q 783 692 810 631 q 710 800 756 754 q 602 873 664 846 q 471 900 540 900 q 340 873 401 900 q 232 800 278 846 q 159 692 186 754 q 132 561 132 631 m 22 561 q 58 737 22 654 q 153 882 93 819 q 296 981 214 944 q 471 1017 378 1017 q 647 981 564 1017 q 792 882 729 944 q 890 737 854 819 q 926 561 926 654 q 890 386 926 468 q 792 244 854 304 q 647 148 729 183 q 471 113 564 113 q 296 148 378 113 q 153 244 214 183 q 58 386 93 304 q 22 561 22 468 z "},"ª":{"ha":299,"x_min":28,"x_max":261,"o":"m 165 751 q 151 742 158 747 q 140 733 145 738 l 141 734 q 126 688 126 722 l 126 623 q 143 597 126 597 q 165 623 165 597 l 165 751 m 29 696 q 43 759 29 732 q 78 805 57 785 q 122 840 99 825 q 165 868 146 855 l 165 989 q 148 1014 165 1014 q 133 989 133 1014 l 133 864 l 36 864 l 36 960 q 148 1114 36 1114 q 262 960 262 1114 l 262 498 l 165 498 l 165 523 q 114 498 145 498 q 29 652 29 498 l 29 696 z "},"«":{"ha":814,"x_min":86,"x_max":729,"o":"m 536 358 l 729 28 l 581 28 l 353 360 l 579 688 l 729 688 l 536 358 m 274 358 l 463 28 l 317 28 l 86 358 l 317 688 l 464 688 l 274 358 z "},"¬":{"ha":272,"x_min":43,"x_max":271,"o":"m 43 632 l 271 632 l 271 501 l 43 501 l 43 632 z "},"®":{"ha":703,"x_min":18,"x_max":682,"o":"m 108 797 q 128 706 108 749 q 180 630 147 663 q 256 578 213 597 q 347 558 299 558 q 438 578 394 558 q 515 630 482 597 q 567 706 547 663 q 586 797 586 749 q 567 888 586 844 q 515 965 547 932 q 438 1017 482 997 q 347 1036 394 1036 q 256 1017 299 1036 q 180 965 213 997 q 128 888 147 932 q 108 797 108 844 m 18 797 q 44 926 18 865 q 115 1033 69 988 q 219 1106 160 1079 q 347 1132 279 1132 q 476 1106 415 1132 q 583 1033 538 1079 q 656 926 629 988 q 682 797 682 865 q 656 669 682 729 q 583 565 629 610 q 476 494 538 519 q 347 468 415 468 q 219 494 279 468 q 115 565 160 519 q 44 669 69 610 q 18 797 18 729 m 325 936 l 325 833 l 346 833 q 371 850 371 833 l 371 919 q 344 936 371 936 l 325 936 m 335 786 l 325 786 l 325 628 l 249 628 l 249 983 l 344 983 q 449 906 449 983 l 449 868 q 406 797 449 819 l 449 628 l 371 628 l 335 786 z "},"¯":{"ha":319,"x_min":44,"x_max":286,"o":"m 44 1308 l 286 1308 l 286 1196 l 44 1196 l 44 1308 z "},"°":{"ha":550,"x_min":33,"x_max":525,"o":"m 133 886 q 145 831 133 857 q 176 786 157 806 q 222 756 196 767 q 278 744 249 744 q 333 756 307 744 q 378 786 358 767 q 408 831 397 806 q 419 886 419 857 q 408 942 419 915 q 378 988 397 968 q 333 1019 358 1007 q 278 1031 307 1031 q 222 1019 249 1031 q 176 988 196 1007 q 145 942 157 968 q 133 886 133 915 m 33 886 q 52 981 33 936 q 104 1060 71 1026 q 182 1115 138 1094 q 278 1135 226 1135 q 373 1115 328 1135 q 452 1060 418 1094 q 506 981 486 1026 q 525 886 525 936 q 506 792 525 836 q 452 714 486 747 q 373 662 418 681 q 278 643 328 643 q 182 662 226 643 q 104 714 138 681 q 52 792 71 747 q 33 886 33 836 z "},"±":{"ha":414,"x_min":43,"x_max":418,"o":"m 293 751 l 293 632 l 411 632 l 411 501 l 293 501 l 293 382 l 163 382 l 163 501 l 43 501 l 43 632 l 163 632 l 163 751 l 293 751 m 46 356 l 418 356 l 418 222 l 46 222 l 46 356 z "},"´":{"ha":261,"x_min":-12,"x_max":261,"o":"m 261 1281 l 97 1168 l -12 1168 l 94 1281 l 261 1281 z "},"µ":{"ha":394,"x_min":32,"x_max":393,"o":"m 32 846 l 169 846 l 169 156 q 197 121 169 121 q 225 156 225 121 l 225 846 l 363 846 l 363 147 q 393 121 364 121 l 393 -21 l 339 -21 q 263 19 294 -21 q 169 -21 226 -18 l 169 -218 l 32 -218 l 32 846 z "},"¶":{"ha":374,"x_min":18,"x_max":354,"o":"m 354 1132 l 354 -21 l 243 -21 l 243 674 l 215 674 l 215 -21 l 104 -21 l 104 674 l 18 674 l 18 1132 l 354 1132 z "},"·":{"ha":199,"x_min":46,"x_max":188,"o":"m 46 608 l 188 608 l 188 433 l 46 433 l 46 608 z "},"¸":{"ha":286,"x_min":50,"x_max":231,"o":"m 142 -135 q 141 -127 142 -131 q 140 -121 140 -124 l 140 -136 q 139 -143 140 -142 q 142 -135 142 -140 m 171 -3 q 180 -30 171 -18 q 201 -56 189 -42 q 222 -87 213 -69 q 231 -129 231 -104 q 139 -217 231 -217 q 50 -133 50 -217 l 50 -106 l 133 -106 q 117 -87 128 -94 q 82 -6 82 -57 l 82 29 l 171 29 l 171 -3 z "},"¹":{"ha":258,"x_min":36,"x_max":213,"o":"m 36 1064 q 75 1081 75 1064 l 75 1132 l 213 1132 l 213 378 l 75 378 l 75 926 l 36 926 l 36 1064 z "},"º":{"ha":394,"x_min":32,"x_max":363,"o":"m 225 956 q 196 990 225 990 q 169 956 169 990 l 169 539 q 196 503 169 503 q 225 539 225 503 l 225 956 m 363 579 q 196 363 363 363 q 32 579 32 363 l 32 915 q 196 1132 32 1132 q 363 915 363 1132 l 363 579 z "},"»":{"ha":814,"x_min":79,"x_max":722,"o":"m 79 28 l 271 358 l 79 688 l 229 688 l 456 360 l 228 28 l 79 28 m 344 28 l 535 358 l 344 688 l 492 688 l 722 358 l 492 28 l 344 28 z "},"¿":{"ha":469,"x_min":47,"x_max":422,"o":"m 339 783 l 185 783 l 185 936 l 339 936 l 339 783 m 185 714 l 339 714 l 339 518 q 265 279 339 365 q 217 191 235 242 q 200 74 200 140 l 200 -21 q 235 -64 200 -64 q 269 -21 269 -64 l 269 171 l 422 171 l 422 49 q 235 -217 422 -217 q 47 49 47 -217 l 47 92 q 121 336 47 250 q 185 533 185 413 l 185 714 z "},"À":{"ha":449,"x_min":15,"x_max":472,"o":"m 213 307 l 276 307 l 253 518 l 244 642 l 236 517 l 213 307 m 18 -21 l 171 1132 l 319 1132 l 472 -21 l 318 -21 l 296 146 l 192 146 l 172 -21 l 18 -21 m 204 1281 l 311 1168 l 201 1168 l 15 1281 l 204 1281 z "},"Á":{"ha":449,"x_min":18,"x_max":472,"o":"m 213 307 l 276 307 l 253 518 l 244 642 l 236 517 l 213 307 m 18 -21 l 171 1132 l 319 1132 l 472 -21 l 318 -21 l 296 146 l 192 146 l 172 -21 l 18 -21 m 449 1281 l 285 1168 l 175 1168 l 282 1281 l 449 1281 z "},"Â":{"ha":449,"x_min":18,"x_max":472,"o":"m 213 307 l 276 307 l 253 518 l 244 642 l 236 517 l 213 307 m 18 -21 l 171 1132 l 319 1132 l 472 -21 l 318 -21 l 296 146 l 192 146 l 172 -21 l 18 -21 m 207 1281 l 285 1281 l 443 1168 l 267 1168 l 246 1203 l 225 1168 l 46 1168 l 207 1281 z "},"Ã":{"ha":449,"x_min":18,"x_max":472,"o":"m 213 307 l 276 307 l 253 518 l 244 642 l 236 517 l 213 307 m 18 -21 l 171 1132 l 319 1132 l 472 -21 l 318 -21 l 296 146 l 192 146 l 172 -21 l 18 -21 m 96 1168 l 96 1192 q 119 1256 96 1231 q 179 1281 143 1281 q 212 1276 194 1281 q 247 1267 229 1272 q 280 1257 264 1261 q 308 1253 296 1253 l 310 1253 l 308 1253 q 315 1281 313 1256 l 396 1281 q 374 1195 396 1222 q 317 1168 351 1168 q 282 1172 300 1168 q 246 1181 264 1176 q 213 1190 228 1186 q 188 1194 197 1194 l 182 1194 q 176 1168 178 1194 l 96 1168 z "},"Ä":{"ha":449,"x_min":18,"x_max":472,"o":"m 213 307 l 276 307 l 253 518 l 244 642 l 236 517 l 213 307 m 18 -21 l 171 1132 l 319 1132 l 472 -21 l 318 -21 l 296 146 l 192 146 l 172 -21 l 18 -21 m 96 1281 l 204 1281 l 204 1168 l 96 1168 l 96 1281 m 285 1168 l 285 1281 l 394 1281 l 394 1168 l 285 1168 z "},"Å":{"ha":449,"x_min":18,"x_max":472,"o":"m 213 307 l 276 307 l 253 518 l 244 642 l 236 517 l 213 307 m 18 -21 l 171 1132 l 319 1132 l 472 -21 l 318 -21 l 296 146 l 192 146 l 172 -21 l 18 -21 m 207 1229 q 218 1203 207 1214 q 244 1192 229 1192 q 271 1203 260 1192 q 282 1229 282 1214 q 271 1256 282 1244 q 244 1267 260 1267 q 218 1256 229 1267 q 207 1229 207 1244 m 146 1229 q 175 1299 146 1269 q 244 1329 204 1329 q 315 1299 285 1329 q 344 1229 344 1269 q 315 1160 344 1189 q 244 1131 285 1131 q 175 1160 204 1131 q 146 1229 146 1189 z "},"Æ":{"ha":564,"x_min":-1,"x_max":531,"o":"m 263 485 l 263 579 l 244 485 l 263 485 m 263 -21 l 263 331 l 218 331 l 154 -21 l -1 -21 l 207 1132 l 531 1132 l 531 979 l 415 979 l 415 485 l 485 485 l 485 331 l 415 331 l 415 132 l 531 132 l 531 -21 l 263 -21 z "},"Ç":{"ha":453,"x_min":65,"x_max":435,"o":"m 288 403 l 435 403 l 435 244 q 253 -21 435 -21 q 65 244 65 -21 l 65 867 q 253 1132 65 1132 q 435 867 435 1132 l 435 744 l 288 744 l 288 936 q 253 979 288 979 q 218 936 218 979 l 218 175 q 253 132 218 132 q 288 175 288 132 l 288 403 m 261 -135 q 260 -127 261 -131 q 260 -121 260 -124 l 260 -136 q 258 -143 260 -142 q 261 -135 261 -140 m 290 -3 q 299 -30 290 -18 q 320 -56 308 -42 q 341 -87 332 -69 q 350 -129 350 -104 q 258 -217 350 -217 q 169 -133 169 -217 l 169 -106 l 253 -106 q 236 -87 247 -94 q 201 -6 201 -57 l 201 29 l 290 29 l 290 -3 z "},"È":{"ha":396,"x_min":29,"x_max":389,"o":"m 218 490 l 218 132 l 389 132 l 389 -21 l 65 -21 l 65 1132 l 389 1132 l 389 979 l 218 979 l 218 643 l 315 643 l 315 490 l 218 490 m 218 1281 l 325 1168 l 215 1168 l 29 1281 l 218 1281 z "},"É":{"ha":396,"x_min":65,"x_max":389,"o":"m 218 490 l 218 132 l 389 132 l 389 -21 l 65 -21 l 65 1132 l 389 1132 l 389 979 l 218 979 l 218 643 l 315 643 l 315 490 l 218 490 m 368 1281 l 204 1168 l 94 1168 l 201 1281 l 368 1281 z "},"Ê":{"ha":396,"x_min":29,"x_max":426,"o":"m 218 490 l 218 132 l 389 132 l 389 -21 l 65 -21 l 65 1132 l 389 1132 l 389 979 l 218 979 l 218 643 l 315 643 l 315 490 l 218 490 m 190 1272 l 268 1272 l 426 1160 l 250 1160 l 229 1194 l 208 1160 l 29 1160 l 190 1272 z "},"Ë":{"ha":396,"x_min":65,"x_max":389,"o":"m 218 490 l 218 132 l 389 132 l 389 -21 l 65 -21 l 65 1132 l 389 1132 l 389 979 l 218 979 l 218 643 l 315 643 l 315 490 l 218 490 m 78 1281 l 186 1281 l 186 1168 l 78 1168 l 78 1281 m 267 1168 l 267 1281 l 376 1281 l 376 1168 l 267 1168 z "},"Ì":{"ha":242,"x_min":-51,"x_max":244,"o":"m 65 -21 l 65 1132 l 218 1132 l 218 -21 l 65 -21 m 138 1281 l 244 1168 l 135 1168 l -51 1281 l 138 1281 z "},"Í":{"ha":242,"x_min":36,"x_max":310,"o":"m 65 -21 l 65 1132 l 218 1132 l 218 -21 l 65 -21 m 310 1281 l 146 1168 l 36 1168 l 143 1281 l 310 1281 z "},"Î":{"ha":242,"x_min":-57,"x_max":340,"o":"m 65 -21 l 65 1132 l 218 1132 l 218 -21 l 65 -21 m 104 1281 l 182 1281 l 340 1168 l 164 1168 l 143 1203 l 122 1168 l -57 1168 l 104 1281 z "},"Ï":{"ha":242,"x_min":-4,"x_max":294,"o":"m 65 -21 l 65 1132 l 218 1132 l 218 -21 l 65 -21 m -4 1281 l 104 1281 l 104 1168 l -4 1168 l -4 1281 m 185 1168 l 185 1281 l 294 1281 l 294 1168 l 185 1168 z "},"Ð":{"ha":464,"x_min":24,"x_max":440,"o":"m 288 936 q 253 979 288 979 l 218 979 l 218 132 l 253 132 q 288 175 288 132 l 288 936 m 440 244 q 253 -21 440 -21 l 65 -21 l 65 1132 l 253 1132 q 440 867 440 1132 l 440 244 m 24 632 l 251 632 l 251 501 l 24 501 l 24 632 z "},"Ñ":{"ha":500,"x_min":65,"x_max":476,"o":"m 232 386 l 207 565 l 207 -21 l 65 -21 l 65 1132 l 238 1132 l 311 722 l 335 547 l 335 1132 l 476 1132 l 476 -21 l 304 -21 l 232 386 m 122 1168 l 122 1192 q 146 1256 122 1231 q 206 1281 169 1281 q 238 1276 221 1281 q 273 1267 256 1272 q 306 1257 290 1261 q 335 1253 322 1253 l 336 1253 l 335 1253 q 342 1281 339 1256 l 422 1281 q 400 1195 422 1222 q 343 1168 378 1168 q 308 1172 326 1168 q 272 1181 290 1176 q 239 1190 254 1186 q 214 1194 224 1194 l 208 1194 q 203 1168 204 1194 l 122 1168 z "},"Ò":{"ha":464,"x_min":36,"x_max":440,"o":"m 288 936 q 253 979 288 979 q 218 936 218 979 l 218 175 q 253 132 218 132 q 288 175 288 132 l 288 936 m 440 244 q 253 -21 440 -21 q 65 244 65 -21 l 65 867 q 253 1132 65 1132 q 440 867 440 1132 l 440 244 m 225 1281 l 332 1168 l 222 1168 l 36 1281 l 225 1281 z "},"Ó":{"ha":464,"x_min":65,"x_max":440,"o":"m 288 936 q 253 979 288 979 q 218 936 218 979 l 218 175 q 253 132 218 132 q 288 175 288 132 l 288 936 m 440 244 q 253 -21 440 -21 q 65 244 65 -21 l 65 867 q 253 1132 65 1132 q 440 867 440 1132 l 440 244 m 429 1281 l 265 1168 l 156 1168 l 263 1281 l 429 1281 z "},"Ô":{"ha":464,"x_min":51,"x_max":449,"o":"m 288 936 q 253 979 288 979 q 218 936 218 979 l 218 175 q 253 132 218 132 q 288 175 288 132 l 288 936 m 440 244 q 253 -21 440 -21 q 65 244 65 -21 l 65 867 q 253 1132 65 1132 q 440 867 440 1132 l 440 244 m 213 1281 l 290 1281 l 449 1168 l 272 1168 l 251 1203 l 231 1168 l 51 1168 l 213 1281 z "},"Õ":{"ha":464,"x_min":65,"x_max":440,"o":"m 288 936 q 253 979 288 979 q 218 936 218 979 l 218 175 q 253 132 218 132 q 288 175 288 132 l 288 936 m 440 244 q 253 -21 440 -21 q 65 244 65 -21 l 65 867 q 253 1132 65 1132 q 440 867 440 1132 l 440 244 m 106 1168 l 106 1192 q 129 1256 106 1231 q 189 1281 153 1281 q 222 1276 204 1281 q 256 1267 239 1272 q 290 1257 274 1261 q 318 1253 306 1253 l 319 1253 l 318 1253 q 325 1281 322 1256 l 406 1281 q 383 1195 406 1222 q 326 1168 361 1168 q 292 1172 310 1168 q 256 1181 274 1176 q 222 1190 238 1186 q 197 1194 207 1194 l 192 1194 q 186 1168 188 1194 l 106 1168 z "},"Ö":{"ha":464,"x_min":65,"x_max":440,"o":"m 288 936 q 253 979 288 979 q 218 936 218 979 l 218 175 q 253 132 218 132 q 288 175 288 132 l 288 936 m 440 244 q 253 -21 440 -21 q 65 244 65 -21 l 65 867 q 253 1132 65 1132 q 440 867 440 1132 l 440 244 m 103 1281 l 211 1281 l 211 1168 l 103 1168 l 103 1281 m 292 1168 l 292 1281 l 401 1281 l 401 1168 l 292 1168 z "},"×":{"ha":414,"x_min":29,"x_max":385,"o":"m 385 650 l 300 565 l 383 482 l 290 389 l 207 472 l 122 388 l 29 481 l 113 565 l 29 650 l 122 743 l 207 660 l 292 743 l 385 650 z "},"Ø":{"ha":464,"x_min":65,"x_max":440,"o":"m 288 936 q 253 979 288 979 q 218 936 218 979 l 218 175 q 253 132 218 132 q 288 175 288 132 l 288 936 m 440 244 q 253 -21 440 -21 q 65 244 65 -21 l 65 867 q 253 1132 65 1132 q 440 867 440 1132 l 440 244 m 413 1132 l 192 -21 l 81 -21 l 301 1132 l 413 1132 z "},"Ù":{"ha":464,"x_min":39,"x_max":440,"o":"m 288 1132 l 440 1132 l 440 244 q 253 -21 440 -21 q 65 244 65 -21 l 65 1132 l 218 1132 l 218 175 q 253 132 218 132 q 288 175 288 132 l 288 1132 m 228 1281 l 335 1168 l 225 1168 l 39 1281 l 228 1281 z "},"Ú":{"ha":464,"x_min":65,"x_max":440,"o":"m 288 1132 l 440 1132 l 440 244 q 253 -21 440 -21 q 65 244 65 -21 l 65 1132 l 218 1132 l 218 175 q 253 132 218 132 q 288 175 288 132 l 288 1132 m 397 1281 l 233 1168 l 124 1168 l 231 1281 l 397 1281 z "},"Û":{"ha":464,"x_min":51,"x_max":449,"o":"m 288 1132 l 440 1132 l 440 244 q 253 -21 440 -21 q 65 244 65 -21 l 65 1132 l 218 1132 l 218 175 q 253 132 218 132 q 288 175 288 132 l 288 1132 m 213 1281 l 290 1281 l 449 1168 l 272 1168 l 251 1203 l 231 1168 l 51 1168 l 213 1281 z "},"Ü":{"ha":464,"x_min":65,"x_max":440,"o":"m 288 1132 l 440 1132 l 440 244 q 253 -21 440 -21 q 65 244 65 -21 l 65 1132 l 218 1132 l 218 175 q 253 132 218 132 q 288 175 288 132 l 288 1132 m 103 1281 l 211 1281 l 211 1168 l 103 1168 l 103 1281 m 292 1168 l 292 1281 l 401 1281 l 401 1168 l 292 1168 z "},"Ý":{"ha":444,"x_min":15,"x_max":471,"o":"m 167 -21 l 167 471 l 15 1132 l 174 1132 l 222 882 l 243 715 l 264 881 l 311 1132 l 471 1132 l 319 471 l 319 -21 l 167 -21 m 372 1281 l 208 1168 l 99 1168 l 206 1281 l 372 1281 z "},"Þ":{"ha":469,"x_min":44,"x_max":442,"o":"m 197 694 l 197 403 l 238 403 q 289 457 289 403 l 289 640 q 236 694 289 694 l 197 694 m 44 1132 l 197 1132 l 197 847 l 236 847 q 442 571 442 847 l 442 526 q 238 250 442 250 l 197 250 l 197 -21 l 44 -21 l 44 1132 z "},"ß":{"ha":435,"x_min":47,"x_max":393,"o":"m 254 951 q 219 994 254 994 q 185 951 185 994 l 185 636 q 254 679 254 636 l 254 951 m 254 456 q 185 499 254 496 l 185 -21 l 47 -21 l 47 894 q 219 1132 47 1132 q 393 894 393 1132 l 393 728 q 349 567 393 619 q 393 406 393 514 l 393 217 q 215 -21 393 -21 l 215 117 q 254 160 254 117 l 254 456 z "},"à":{"ha":418,"x_min":19,"x_max":394,"o":"m 257 335 q 238 323 247 329 q 222 310 229 317 l 224 311 q 203 247 203 294 l 203 156 q 226 119 203 119 q 257 156 257 119 l 257 335 m 65 258 q 85 346 65 308 q 135 411 106 383 q 197 460 164 439 q 257 500 231 482 l 257 669 q 233 704 257 704 q 213 669 213 704 l 213 494 l 75 494 l 75 629 q 233 846 75 846 q 394 629 394 846 l 394 -21 l 257 -21 l 257 15 q 186 -21 229 -21 q 65 196 65 -21 l 65 258 m 208 992 l 315 879 l 206 879 l 19 992 l 208 992 z "},"á":{"ha":418,"x_min":65,"x_max":407,"o":"m 257 335 q 238 323 247 329 q 222 310 229 317 l 224 311 q 203 247 203 294 l 203 156 q 226 119 203 119 q 257 156 257 119 l 257 335 m 65 258 q 85 346 65 308 q 135 411 106 383 q 197 460 164 439 q 257 500 231 482 l 257 669 q 233 704 257 704 q 213 669 213 704 l 213 494 l 75 494 l 75 629 q 233 846 75 846 q 394 629 394 846 l 394 -21 l 257 -21 l 257 15 q 186 -21 229 -21 q 65 196 65 -21 l 65 258 m 407 992 l 243 879 l 133 879 l 240 992 l 407 992 z "},"â":{"ha":418,"x_min":42,"x_max":439,"o":"m 257 335 q 238 323 247 329 q 222 310 229 317 l 224 311 q 203 247 203 294 l 203 156 q 226 119 203 119 q 257 156 257 119 l 257 335 m 65 258 q 85 346 65 308 q 135 411 106 383 q 197 460 164 439 q 257 500 231 482 l 257 669 q 233 704 257 704 q 213 669 213 704 l 213 494 l 75 494 l 75 629 q 233 846 75 846 q 394 629 394 846 l 394 -21 l 257 -21 l 257 15 q 186 -21 229 -21 q 65 196 65 -21 l 65 258 m 203 992 l 281 992 l 439 879 l 263 879 l 242 914 l 221 879 l 42 879 l 203 992 z "},"ã":{"ha":418,"x_min":65,"x_max":394,"o":"m 257 335 q 238 323 247 329 q 222 310 229 317 l 224 311 q 203 247 203 294 l 203 156 q 226 119 203 119 q 257 156 257 119 l 257 335 m 65 258 q 85 346 65 308 q 135 411 106 383 q 197 460 164 439 q 257 500 231 482 l 257 669 q 233 704 257 704 q 213 669 213 704 l 213 494 l 75 494 l 75 629 q 233 846 75 846 q 394 629 394 846 l 394 -21 l 257 -21 l 257 15 q 186 -21 229 -21 q 65 196 65 -21 l 65 258 m 86 879 l 86 903 q 110 967 86 942 q 169 992 133 992 q 202 988 185 992 q 237 978 219 983 q 270 968 254 972 q 299 964 286 964 l 300 964 l 299 964 q 306 992 303 967 l 386 992 q 364 906 386 933 q 307 879 342 879 q 272 883 290 879 q 236 892 254 888 q 203 901 218 897 q 178 906 188 906 l 172 906 q 167 879 168 906 l 86 879 z "},"ä":{"ha":418,"x_min":65,"x_max":394,"o":"m 257 335 q 238 323 247 329 q 222 310 229 317 l 224 311 q 203 247 203 294 l 203 156 q 226 119 203 119 q 257 156 257 119 l 257 335 m 65 258 q 85 346 65 308 q 135 411 106 383 q 197 460 164 439 q 257 500 231 482 l 257 669 q 233 704 257 704 q 213 669 213 704 l 213 494 l 75 494 l 75 629 q 233 846 75 846 q 394 629 394 846 l 394 -21 l 257 -21 l 257 15 q 186 -21 229 -21 q 65 196 65 -21 l 65 258 m 81 992 l 189 992 l 189 879 l 81 879 l 81 992 m 269 879 l 269 992 l 379 992 l 379 879 l 269 879 z "},"å":{"ha":418,"x_min":65,"x_max":394,"o":"m 257 335 q 238 323 247 329 q 222 310 229 317 l 224 311 q 203 247 203 294 l 203 156 q 226 119 203 119 q 257 156 257 119 l 257 335 m 65 258 q 85 346 65 308 q 135 411 106 383 q 197 460 164 439 q 257 500 231 482 l 257 669 q 233 704 257 704 q 213 669 213 704 l 213 494 l 75 494 l 75 629 q 233 846 75 846 q 394 629 394 846 l 394 -21 l 257 -21 l 257 15 q 186 -21 229 -21 q 65 196 65 -21 l 65 258 m 194 940 q 206 914 194 925 q 232 903 217 903 q 258 914 247 903 q 269 940 269 925 q 258 967 269 956 q 232 978 247 978 q 206 967 217 978 q 194 940 194 956 m 133 940 q 163 1010 133 981 q 232 1040 192 1040 q 302 1010 272 1040 q 332 940 332 981 q 302 871 332 900 q 232 842 272 842 q 163 871 192 842 q 133 940 133 900 z "},"æ":{"ha":611,"x_min":44,"x_max":567,"o":"m 236 335 q 196 303 210 322 q 182 247 182 283 l 182 156 q 208 119 182 119 q 236 156 236 119 l 236 335 m 374 513 l 429 513 l 429 669 q 400 704 429 704 q 374 669 374 704 l 374 513 m 374 374 l 374 156 q 400 119 374 119 q 429 156 429 119 l 429 335 l 567 335 l 567 196 q 408 -21 567 -21 q 303 19 347 -21 q 207 -21 267 -21 q 44 196 44 -21 l 44 258 q 65 346 44 308 q 114 411 85 383 q 176 460 143 439 q 236 500 210 482 l 236 669 q 213 704 236 704 q 192 669 192 704 l 192 494 l 54 494 l 54 629 q 213 846 54 846 q 304 808 268 846 q 347 836 324 826 q 400 846 371 846 q 567 629 567 846 l 567 374 l 374 374 z "},"ç":{"ha":414,"x_min":65,"x_max":396,"o":"m 258 669 q 229 704 258 704 q 203 669 203 704 l 203 156 q 229 119 203 119 q 258 156 258 119 l 258 335 l 396 335 l 396 196 q 229 -21 396 -21 q 65 196 65 -21 l 65 629 q 229 846 65 846 q 396 629 396 846 l 396 494 l 258 494 l 258 669 m 246 -135 q 245 -127 246 -131 q 244 -121 244 -124 l 244 -136 q 243 -143 244 -142 q 246 -135 246 -140 m 275 -3 q 284 -30 275 -18 q 305 -56 293 -42 q 326 -87 317 -69 q 335 -129 335 -104 q 243 -217 335 -217 q 154 -133 154 -217 l 154 -106 l 238 -106 q 221 -87 232 -94 q 186 -6 186 -57 l 186 29 l 275 29 l 275 -3 z "},"è":{"ha":419,"x_min":33,"x_max":396,"o":"m 203 513 l 258 513 l 258 669 q 229 704 258 704 q 203 669 203 704 l 203 513 m 203 374 l 203 156 q 229 119 203 119 q 258 156 258 119 l 258 335 l 396 335 l 396 196 q 229 -21 396 -21 q 65 196 65 -21 l 65 629 q 229 846 65 846 q 396 629 396 846 l 396 374 l 203 374 m 222 992 l 329 879 l 219 879 l 33 992 l 222 992 z "},"é":{"ha":419,"x_min":65,"x_max":401,"o":"m 203 513 l 258 513 l 258 669 q 229 704 258 704 q 203 669 203 704 l 203 513 m 203 374 l 203 156 q 229 119 203 119 q 258 156 258 119 l 258 335 l 396 335 l 396 196 q 229 -21 396 -21 q 65 196 65 -21 l 65 629 q 229 846 65 846 q 396 629 396 846 l 396 374 l 203 374 m 401 992 l 238 879 l 128 879 l 235 992 l 401 992 z "},"ê":{"ha":419,"x_min":31,"x_max":428,"o":"m 203 513 l 258 513 l 258 669 q 229 704 258 704 q 203 669 203 704 l 203 513 m 203 374 l 203 156 q 229 119 203 119 q 258 156 258 119 l 258 335 l 396 335 l 396 196 q 229 -21 396 -21 q 65 196 65 -21 l 65 629 q 229 846 65 846 q 396 629 396 846 l 396 374 l 203 374 m 192 992 l 269 992 l 428 879 l 251 879 l 231 914 l 210 879 l 31 879 l 192 992 z "},"ë":{"ha":419,"x_min":65,"x_max":396,"o":"m 203 513 l 258 513 l 258 669 q 229 704 258 704 q 203 669 203 704 l 203 513 m 203 374 l 203 156 q 229 119 203 119 q 258 156 258 119 l 258 335 l 396 335 l 396 196 q 229 -21 396 -21 q 65 196 65 -21 l 65 629 q 229 846 65 846 q 396 629 396 846 l 396 374 l 203 374 m 82 992 l 190 992 l 190 879 l 82 879 l 82 992 m 271 879 l 271 992 l 381 992 l 381 879 l 271 879 z "},"ì":{"ha":238,"x_min":-75,"x_max":221,"o":"m 211 -21 l 74 -21 l 74 846 l 211 846 l 211 -21 m 114 992 l 221 879 l 111 879 l -75 992 l 114 992 z "},"í":{"ha":238,"x_min":72,"x_max":346,"o":"m 211 -21 l 74 -21 l 74 846 l 211 846 l 211 -21 m 346 992 l 182 879 l 72 879 l 179 992 l 346 992 z "},"î":{"ha":238,"x_min":-56,"x_max":342,"o":"m 211 -21 l 74 -21 l 74 846 l 211 846 l 211 -21 m 106 992 l 183 992 l 342 879 l 165 879 l 144 914 l 124 879 l -56 879 l 106 992 z "},"ï":{"ha":238,"x_min":-4,"x_max":294,"o":"m 211 -21 l 74 -21 l 74 846 l 211 846 l 211 -21 m -4 992 l 104 992 l 104 879 l -4 879 l -4 992 m 185 879 l 185 992 l 294 992 l 294 879 l 185 879 z "},"ð":{"ha":464,"x_min":43,"x_max":418,"o":"m 196 175 q 231 132 196 132 q 265 175 265 132 l 265 514 q 231 554 263 554 q 196 510 196 554 l 196 175 m 43 867 q 231 1132 43 1132 q 418 867 418 1132 l 418 244 q 231 -21 418 -21 q 43 244 43 -21 l 43 442 q 231 707 43 707 q 265 701 250 707 l 265 936 q 231 979 265 979 q 196 936 196 979 l 196 744 l 43 744 l 43 867 z "},"ñ":{"ha":419,"x_min":65,"x_max":396,"o":"m 258 669 q 231 704 258 704 q 203 669 203 704 l 203 -21 l 65 -21 l 65 846 l 203 846 l 203 822 q 275 846 231 846 q 396 629 396 846 l 396 -21 l 258 -21 l 258 669 m 75 879 l 75 903 q 99 967 75 942 q 158 992 122 992 q 191 988 174 992 q 226 978 208 983 q 259 968 243 972 q 288 964 275 964 l 289 964 l 288 964 q 294 992 292 967 l 375 992 q 353 906 375 933 q 296 879 331 879 q 261 883 279 879 q 225 892 243 888 q 192 901 207 897 q 167 906 176 906 l 161 906 q 156 879 157 906 l 75 879 z "},"ò":{"ha":419,"x_min":26,"x_max":396,"o":"m 258 669 q 229 704 258 704 q 203 669 203 704 l 203 156 q 229 119 203 119 q 258 156 258 119 l 258 669 m 396 196 q 229 -21 396 -21 q 65 196 65 -21 l 65 629 q 229 846 65 846 q 396 629 396 846 l 396 196 m 215 992 l 322 879 l 213 879 l 26 992 l 215 992 z "},"ó":{"ha":419,"x_min":65,"x_max":396,"o":"m 258 669 q 229 704 258 704 q 203 669 203 704 l 203 156 q 229 119 203 119 q 258 156 258 119 l 258 669 m 396 196 q 229 -21 396 -21 q 65 196 65 -21 l 65 629 q 229 846 65 846 q 396 629 396 846 l 396 196 m 372 992 l 208 879 l 99 879 l 206 992 l 372 992 z "},"ô":{"ha":419,"x_min":33,"x_max":431,"o":"m 258 669 q 229 704 258 704 q 203 669 203 704 l 203 156 q 229 119 203 119 q 258 156 258 119 l 258 669 m 396 196 q 229 -21 396 -21 q 65 196 65 -21 l 65 629 q 229 846 65 846 q 396 629 396 846 l 396 196 m 194 992 l 272 992 l 431 879 l 254 879 l 233 914 l 213 879 l 33 879 l 194 992 z "},"õ":{"ha":419,"x_min":65,"x_max":396,"o":"m 258 669 q 229 704 258 704 q 203 669 203 704 l 203 156 q 229 119 203 119 q 258 156 258 119 l 258 669 m 396 196 q 229 -21 396 -21 q 65 196 65 -21 l 65 629 q 229 846 65 846 q 396 629 396 846 l 396 196 m 85 879 l 85 903 q 108 967 85 942 q 168 992 132 992 q 201 988 183 992 q 235 978 218 983 q 269 968 253 972 q 297 964 285 964 l 299 964 l 297 964 q 304 992 301 967 l 385 992 q 363 906 385 933 q 306 879 340 879 q 271 883 289 879 q 235 892 253 888 q 201 901 217 897 q 176 906 186 906 l 171 906 q 165 879 167 906 l 85 879 z "},"ö":{"ha":419,"x_min":65,"x_max":396,"o":"m 258 669 q 229 704 258 704 q 203 669 203 704 l 203 156 q 229 119 203 119 q 258 156 258 119 l 258 669 m 396 196 q 229 -21 396 -21 q 65 196 65 -21 l 65 629 q 229 846 65 846 q 396 629 396 846 l 396 196 m 82 992 l 190 992 l 190 879 l 82 879 l 82 992 m 271 879 l 271 992 l 381 992 l 381 879 l 271 879 z "},"÷":{"ha":464,"x_min":14,"x_max":447,"o":"m 154 844 l 296 844 l 296 669 l 154 669 l 154 844 m 154 464 l 296 464 l 296 289 l 154 289 l 154 464 m 14 632 l 447 632 l 447 501 l 14 501 l 14 632 z "},"ø":{"ha":419,"x_min":65,"x_max":396,"o":"m 258 669 q 229 704 258 704 q 203 669 203 704 l 203 156 q 229 119 203 119 q 258 156 258 119 l 258 669 m 396 196 q 229 -21 396 -21 q 65 196 65 -21 l 65 629 q 229 846 65 846 q 396 629 396 846 l 396 196 m 349 842 l 184 -15 l 102 -15 l 266 842 l 349 842 z "},"ù":{"ha":419,"x_min":29,"x_max":396,"o":"m 203 156 q 231 121 203 121 q 258 156 258 121 l 258 846 l 396 846 l 396 -21 l 258 -21 l 258 3 q 186 -21 231 -21 q 65 196 65 -21 l 65 846 l 203 846 l 203 156 m 218 992 l 325 879 l 215 879 l 29 992 l 218 992 z "},"ú":{"ha":419,"x_min":65,"x_max":396,"o":"m 203 156 q 231 121 203 121 q 258 156 258 121 l 258 846 l 396 846 l 396 -21 l 258 -21 l 258 3 q 186 -21 231 -21 q 65 196 65 -21 l 65 846 l 203 846 l 203 156 m 385 992 l 221 879 l 111 879 l 218 992 l 385 992 z "},"û":{"ha":419,"x_min":29,"x_max":426,"o":"m 203 156 q 231 121 203 121 q 258 156 258 121 l 258 846 l 396 846 l 396 -21 l 258 -21 l 258 3 q 186 -21 231 -21 q 65 196 65 -21 l 65 846 l 203 846 l 203 156 m 190 992 l 268 992 l 426 879 l 250 879 l 229 914 l 208 879 l 29 879 l 190 992 z "},"ü":{"ha":419,"x_min":65,"x_max":396,"o":"m 203 156 q 231 121 203 121 q 258 156 258 121 l 258 846 l 396 846 l 396 -21 l 258 -21 l 258 3 q 186 -21 231 -21 q 65 196 65 -21 l 65 846 l 203 846 l 203 156 m 81 992 l 189 992 l 189 879 l 81 879 l 81 992 m 269 879 l 269 992 l 379 992 l 379 879 l 269 879 z "},"ý":{"ha":383,"x_min":29,"x_max":396,"o":"m 47 -76 q 144 0 132 -71 l 29 846 l 169 846 l 197 621 l 211 411 l 225 618 l 254 846 l 396 846 l 283 -3 q 208 -165 268 -112 q 47 -217 147 -217 l 47 -76 m 363 992 l 199 879 l 89 879 l 196 992 l 363 992 z "},"þ":{"ha":419,"x_min":44,"x_max":375,"o":"m 238 669 q 210 704 238 704 q 182 669 182 704 l 182 156 q 210 119 182 119 q 238 156 238 119 l 238 669 m 44 1132 l 182 1132 l 182 836 q 240 846 207 846 q 375 629 375 846 l 375 196 q 229 -21 375 -21 q 182 -15 199 -21 l 182 -217 l 44 -217 l 44 1132 z "},"ÿ":{"ha":383,"x_min":29,"x_max":396,"o":"m 47 -76 q 144 0 132 -71 l 29 846 l 169 846 l 197 621 l 211 411 l 225 618 l 254 846 l 396 846 l 283 -3 q 208 -165 268 -112 q 47 -217 147 -217 l 47 -76 m 64 992 l 172 992 l 172 879 l 64 879 l 64 992 m 253 879 l 253 992 l 363 992 l 363 879 l 253 879 z "},"∕":{"ha":619,"x_min":11,"x_max":611,"o":"m 611 1132 l 126 -21 l 11 -21 l 497 1132 l 611 1132 z "},"ˇ":{"ha":338,"x_min":-33,"x_max":364,"o":"m 203 1167 l 125 1167 l -33 1279 l 143 1279 l 164 1243 l 185 1279 l 364 1279 l 203 1167 z "},"˘":{"ha":338,"x_min":7,"x_max":329,"o":"m 329 1281 q 163 1168 279 1168 q 7 1281 25 1168 l 139 1281 q 164 1225 139 1225 q 189 1281 189 1225 l 329 1281 z "},"˙":{"ha":196,"x_min":44,"x_max":161,"o":"m 44 1281 l 161 1281 l 161 1168 l 44 1168 l 44 1281 z "},"˚":{"ha":235,"x_min":18,"x_max":217,"o":"m 79 1229 q 90 1203 79 1214 q 117 1192 101 1192 q 143 1203 132 1192 q 154 1229 154 1214 q 143 1256 154 1244 q 117 1267 132 1267 q 90 1256 101 1267 q 79 1229 79 1244 m 18 1229 q 47 1299 18 1269 q 117 1329 76 1329 q 187 1299 157 1329 q 217 1229 217 1269 q 187 1160 217 1189 q 117 1131 157 1131 q 47 1160 76 1131 q 18 1229 18 1189 z "},"˝":{"ha":374,"x_min":-32,"x_max":415,"o":"m 228 1168 l 136 1168 l 283 1281 l 415 1281 l 228 1168 m 131 1281 l 238 1281 l 92 1168 l -32 1168 l 131 1281 z "},"ı":{"ha":238,"x_min":53,"x_max":190,"o":"m 190 -21 l 53 -21 l 53 846 l 190 846 l 190 -21 z "},"ﬁ":{"ha":397,"x_min":6,"x_max":365,"o":"m 365 -21 l 228 -21 l 228 704 l 175 704 l 175 -21 l 38 -21 l 38 704 l 6 704 l 6 846 l 38 846 l 38 915 q 218 1132 38 1132 l 365 1132 l 365 990 l 218 990 q 175 956 175 990 l 175 846 l 365 846 l 365 -21 z "},"ﬂ":{"ha":397,"x_min":6,"x_max":365,"o":"m 175 846 l 228 846 l 228 990 l 218 990 q 175 956 175 990 l 175 846 m 365 -21 l 228 -21 l 228 704 l 175 704 l 175 -21 l 38 -21 l 38 704 l 6 704 l 6 846 l 38 846 l 38 915 q 218 1132 38 1132 l 365 1132 l 365 -21 z "},"˛":{"ha":286,"x_min":44,"x_max":225,"o":"m 135 -136 l 135 -121 q 133 -135 133 -124 q 135 -143 133 -142 l 135 -136 m 104 29 l 193 29 l 193 -6 q 157 -87 193 -58 q 140 -106 146 -94 l 225 -106 l 225 -133 q 136 -217 225 -217 q 44 -129 44 -217 q 53 -87 44 -104 q 74 -56 63 -69 q 95 -30 86 -42 q 104 -3 104 -18 l 104 29 z "},"Ł":{"ha":383,"x_min":-51,"x_max":368,"o":"m 197 658 l 197 132 l 368 132 l 368 -21 l 44 -21 l 44 569 l -1 543 l -51 626 l 44 681 l 44 1132 l 197 1132 l 197 769 l 257 804 l 306 722 l 197 658 z "},"ł":{"ha":203,"x_min":-86,"x_max":286,"o":"m 286 732 l 169 664 l 169 -21 l 32 -21 l 32 585 l -37 546 l -86 628 l 32 694 l 32 1132 l 169 1132 l 169 775 l 236 815 l 286 732 z "},"Ž":{"ha":415,"x_min":32,"x_max":429,"o":"m 53 1132 l 415 1132 l 415 969 l 201 132 l 415 132 l 415 -21 l 42 -21 l 42 131 l 265 979 l 53 979 l 53 1132 m 268 1167 l 190 1167 l 32 1279 l 208 1279 l 229 1243 l 250 1279 l 429 1279 l 268 1167 z "},"ž":{"ha":378,"x_min":17,"x_max":414,"o":"m 64 846 l 360 846 l 360 707 l 201 119 l 358 119 l 358 -21 l 60 -21 l 60 108 l 224 704 l 64 704 l 64 846 m 253 878 l 175 878 l 17 990 l 193 990 l 214 954 l 235 990 l 414 990 l 253 878 z "},"Ś":{"ha":447,"x_min":65,"x_max":424,"o":"m 271 936 q 244 979 271 979 q 218 936 218 979 l 218 785 q 317 589 218 721 q 424 342 424 444 l 424 244 q 244 -21 424 -21 q 65 244 65 -21 l 65 403 l 218 403 l 218 175 q 244 132 218 132 q 271 175 271 132 l 271 303 q 172 525 271 397 q 65 796 65 665 l 65 867 q 244 1132 65 1132 q 424 867 424 1132 l 424 744 l 271 744 l 271 936 m 414 1281 l 250 1168 l 140 1168 l 247 1281 l 414 1281 z "},"Ť":{"ha":383,"x_min":15,"x_max":413,"o":"m 25 1132 l 400 1132 l 400 979 l 289 979 l 289 -21 l 136 -21 l 136 979 l 25 979 l 25 1132 m 251 1167 l 174 1167 l 15 1279 l 192 1279 l 213 1243 l 233 1279 l 413 1279 l 251 1167 z "},"Ź":{"ha":415,"x_min":42,"x_max":415,"o":"m 53 1132 l 415 1132 l 415 969 l 201 132 l 415 132 l 415 -21 l 42 -21 l 42 131 l 265 979 l 53 979 l 53 1132 m 385 1281 l 221 1168 l 111 1168 l 218 1281 l 385 1281 z "},"ś":{"ha":382,"x_min":56,"x_max":371,"o":"m 236 674 q 213 710 236 710 q 192 674 192 710 l 192 597 q 276 436 192 538 q 371 207 371 317 q 213 -21 371 -21 q 56 211 56 -21 l 56 268 l 183 268 l 183 151 q 208 115 183 115 q 233 151 233 115 l 233 228 q 150 378 233 290 q 56 615 56 476 q 210 846 56 846 q 365 615 365 846 l 365 551 l 236 551 l 236 674 m 365 992 l 201 879 l 92 879 l 199 992 l 365 992 z "},"ť":{"ha":340,"x_min":28,"x_max":343,"o":"m 28 846 l 67 846 l 67 1132 l 204 1132 l 204 846 l 249 846 l 249 704 l 204 704 l 204 156 q 256 121 204 121 l 256 -21 q 67 196 67 -21 l 67 704 l 28 704 l 28 846 m 201 1131 l 343 1131 l 343 999 q 242 876 343 876 l 218 876 l 218 942 q 251 974 247 940 l 201 974 l 201 1131 z "},"ź":{"ha":378,"x_min":60,"x_max":388,"o":"m 64 846 l 360 846 l 360 707 l 201 119 l 358 119 l 358 -21 l 60 -21 l 60 108 l 224 704 l 64 704 l 64 846 m 388 992 l 224 879 l 114 879 l 221 992 l 388 992 z "},"Ą":{"ha":449,"x_min":18,"x_max":474,"o":"m 213 307 l 276 307 l 253 518 l 244 642 l 236 517 l 213 307 m 18 -21 l 171 1132 l 319 1132 l 472 -21 l 318 -21 l 296 146 l 192 146 l 172 -21 l 18 -21 m 383 -136 l 383 -121 q 382 -135 382 -124 q 383 -143 382 -142 l 383 -136 m 353 29 l 442 29 l 442 -6 q 406 -87 442 -58 q 389 -106 394 -94 l 474 -106 l 474 -133 q 385 -217 474 -217 q 293 -129 293 -217 q 302 -87 293 -104 q 323 -56 311 -69 q 344 -30 335 -42 q 353 -3 353 -18 l 353 29 z "},"Ş":{"ha":447,"x_min":65,"x_max":424,"o":"m 271 936 q 244 979 271 979 q 218 936 218 979 l 218 785 q 317 589 218 721 q 424 342 424 444 l 424 244 q 244 -21 424 -21 q 65 244 65 -21 l 65 403 l 218 403 l 218 175 q 244 132 218 132 q 271 175 271 132 l 271 303 q 172 525 271 397 q 65 796 65 665 l 65 867 q 244 1132 65 1132 q 424 867 424 1132 l 424 744 l 271 744 l 271 936 m 250 -135 q 249 -127 250 -131 q 249 -121 249 -124 l 249 -136 q 247 -143 249 -142 q 250 -135 250 -140 m 279 -3 q 288 -30 279 -18 q 309 -56 297 -42 q 330 -87 321 -69 q 339 -129 339 -104 q 247 -217 339 -217 q 158 -133 158 -217 l 158 -106 l 242 -106 q 225 -87 236 -94 q 190 -6 190 -57 l 190 29 l 279 29 l 279 -3 z "},"Ż":{"ha":415,"x_min":42,"x_max":415,"o":"m 53 1132 l 415 1132 l 415 969 l 201 132 l 415 132 l 415 -21 l 42 -21 l 42 131 l 265 979 l 53 979 l 53 1132 m 169 1281 l 286 1281 l 286 1168 l 169 1168 l 169 1281 z "},"ą":{"ha":418,"x_min":65,"x_max":407,"o":"m 257 335 q 238 323 247 329 q 222 310 229 317 l 224 311 q 203 247 203 294 l 203 156 q 226 119 203 119 q 257 156 257 119 l 257 335 m 65 258 q 85 346 65 308 q 135 411 106 383 q 197 460 164 439 q 257 500 231 482 l 257 669 q 233 704 257 704 q 213 669 213 704 l 213 494 l 75 494 l 75 629 q 233 846 75 846 q 394 629 394 846 l 394 -21 l 257 -21 l 257 15 q 186 -21 229 -21 q 65 196 65 -21 l 65 258 m 317 -136 l 317 -121 q 315 -135 315 -124 q 317 -143 315 -142 l 317 -136 m 286 29 l 375 29 l 375 -6 q 339 -87 375 -58 q 322 -106 328 -94 l 407 -106 l 407 -133 q 318 -217 407 -217 q 226 -129 226 -217 q 235 -87 226 -104 q 256 -56 244 -69 q 277 -30 268 -42 q 286 -3 286 -18 l 286 29 z "},"ş":{"ha":382,"x_min":56,"x_max":371,"o":"m 236 674 q 213 710 236 710 q 192 674 192 710 l 192 597 q 276 436 192 538 q 371 207 371 317 q 213 -21 371 -21 q 56 211 56 -21 l 56 268 l 183 268 l 183 151 q 208 115 183 115 q 233 151 233 115 l 233 228 q 150 378 233 290 q 56 615 56 476 q 210 846 56 846 q 365 615 365 846 l 365 551 l 236 551 l 236 674 m 222 -135 q 222 -127 222 -131 q 221 -121 221 -124 l 221 -136 q 219 -143 221 -142 q 222 -135 222 -140 m 251 -3 q 260 -30 251 -18 q 281 -56 269 -42 q 302 -87 293 -69 q 311 -129 311 -104 q 219 -217 311 -217 q 131 -133 131 -217 l 131 -106 l 214 -106 q 197 -87 208 -94 q 163 -6 163 -57 l 163 29 l 251 29 l 251 -3 z "},"Ľ":{"ha":383,"x_min":65,"x_max":389,"o":"m 218 132 l 389 132 l 389 -21 l 65 -21 l 65 1132 l 218 1132 l 218 132 m 225 1133 l 367 1133 l 367 1001 q 265 879 367 879 l 242 879 l 242 944 q 275 976 271 943 l 225 976 l 225 1133 z "},"ľ":{"ha":296,"x_min":53,"x_max":329,"o":"m 53 1132 l 190 1132 l 190 -21 l 53 -21 l 53 1132 m 188 1132 l 329 1132 l 329 1000 q 228 878 329 878 l 204 878 l 204 943 q 238 975 233 942 l 188 975 l 188 1132 z "},"ż":{"ha":378,"x_min":60,"x_max":360,"o":"m 64 846 l 360 846 l 360 707 l 201 119 l 358 119 l 358 -21 l 60 -21 l 60 108 l 224 704 l 64 704 l 64 846 m 151 992 l 268 992 l 268 879 l 151 879 l 151 992 z "},"Ŕ":{"ha":465,"x_min":65,"x_max":464,"o":"m 218 979 l 218 643 l 258 643 q 310 697 310 643 l 310 925 q 257 979 310 979 l 218 979 m 238 490 l 218 490 l 218 -21 l 65 -21 l 65 1132 l 257 1132 q 463 878 463 1132 l 463 756 q 378 526 463 599 l 464 -21 l 308 -21 l 238 490 m 403 1281 l 239 1168 l 129 1168 l 236 1281 l 403 1281 z "},"Ă":{"ha":449,"x_min":18,"x_max":472,"o":"m 213 307 l 276 307 l 253 518 l 244 642 l 236 517 l 213 307 m 18 -21 l 171 1132 l 319 1132 l 472 -21 l 318 -21 l 296 146 l 192 146 l 172 -21 l 18 -21 m 410 1281 q 243 1168 360 1168 q 88 1281 106 1168 l 219 1281 q 244 1225 219 1225 q 269 1281 269 1225 l 410 1281 z "},"Ĺ":{"ha":383,"x_min":47,"x_max":389,"o":"m 218 132 l 389 132 l 389 -21 l 65 -21 l 65 1132 l 218 1132 l 218 132 m 321 1281 l 157 1168 l 47 1168 l 154 1281 l 321 1281 z "},"Ć":{"ha":453,"x_min":65,"x_max":435,"o":"m 288 403 l 435 403 l 435 244 q 253 -21 435 -21 q 65 244 65 -21 l 65 867 q 253 1132 65 1132 q 435 867 435 1132 l 435 744 l 288 744 l 288 936 q 253 979 288 979 q 218 936 218 979 l 218 175 q 253 132 218 132 q 288 175 288 132 l 288 403 m 415 1281 l 251 1168 l 142 1168 l 249 1281 l 415 1281 z "},"Č":{"ha":453,"x_min":54,"x_max":451,"o":"m 288 403 l 435 403 l 435 244 q 253 -21 435 -21 q 65 244 65 -21 l 65 867 q 253 1132 65 1132 q 435 867 435 1132 l 435 744 l 288 744 l 288 936 q 253 979 288 979 q 218 936 218 979 l 218 175 q 253 132 218 132 q 288 175 288 132 l 288 403 m 290 1167 l 213 1167 l 54 1279 l 231 1279 l 251 1243 l 272 1279 l 451 1279 l 290 1167 z "},"Ę":{"ha":396,"x_min":65,"x_max":389,"o":"m 218 490 l 218 132 l 389 132 l 389 -21 l 65 -21 l 65 1132 l 389 1132 l 389 979 l 218 979 l 218 643 l 315 643 l 315 490 l 218 490 m 201 -136 l 201 -121 q 200 -135 200 -124 q 201 -143 200 -142 l 201 -136 m 171 29 l 260 29 l 260 -6 q 224 -87 260 -58 q 207 -106 213 -94 l 292 -106 l 292 -133 q 203 -217 292 -217 q 111 -129 111 -217 q 120 -87 111 -104 q 141 -56 129 -69 q 162 -30 153 -42 q 171 -3 171 -18 l 171 29 z "},"Ě":{"ha":396,"x_min":28,"x_max":425,"o":"m 218 490 l 218 132 l 389 132 l 389 -21 l 65 -21 l 65 1132 l 389 1132 l 389 979 l 218 979 l 218 643 l 315 643 l 315 490 l 218 490 m 264 1167 l 186 1167 l 28 1279 l 204 1279 l 225 1243 l 246 1279 l 425 1279 l 264 1167 z "},"Ď":{"ha":464,"x_min":43,"x_max":440,"o":"m 288 936 q 253 979 288 979 l 218 979 l 218 132 l 253 132 q 288 175 288 132 l 288 936 m 440 244 q 253 -21 440 -21 l 65 -21 l 65 1132 l 253 1132 q 440 867 440 1132 l 440 244 m 279 1167 l 201 1167 l 43 1279 l 219 1279 l 240 1243 l 261 1279 l 440 1279 l 279 1167 z "},"Đ":{"ha":464,"x_min":29,"x_max":440,"o":"m 288 936 q 253 979 288 979 l 218 979 l 218 132 l 253 132 q 288 175 288 132 l 288 936 m 440 244 q 253 -21 440 -21 l 65 -21 l 65 1132 l 253 1132 q 440 867 440 1132 l 440 244 m 29 632 l 257 632 l 257 501 l 29 501 l 29 632 z "},"Ń":{"ha":500,"x_min":65,"x_max":476,"o":"m 232 386 l 207 565 l 207 -21 l 65 -21 l 65 1132 l 238 1132 l 311 722 l 335 547 l 335 1132 l 476 1132 l 476 -21 l 304 -21 l 232 386 m 426 1281 l 263 1168 l 153 1168 l 260 1281 l 426 1281 z "},"Ň":{"ha":500,"x_min":65,"x_max":476,"o":"m 232 386 l 207 565 l 207 -21 l 65 -21 l 65 1132 l 238 1132 l 311 722 l 335 547 l 335 1132 l 476 1132 l 476 -21 l 304 -21 l 232 386 m 315 1167 l 238 1167 l 79 1279 l 256 1279 l 276 1243 l 297 1279 l 476 1279 l 315 1167 z "},"Ő":{"ha":464,"x_min":65,"x_max":521,"o":"m 288 936 q 253 979 288 979 q 218 936 218 979 l 218 175 q 253 132 218 132 q 288 175 288 132 l 288 936 m 440 244 q 253 -21 440 -21 q 65 244 65 -21 l 65 867 q 253 1132 65 1132 q 440 867 440 1132 l 440 244 m 333 1168 l 242 1168 l 389 1281 l 521 1281 l 333 1168 m 236 1281 l 343 1281 l 197 1168 l 74 1168 l 236 1281 z "},"Ř":{"ha":465,"x_min":43,"x_max":464,"o":"m 218 979 l 218 643 l 258 643 q 310 697 310 643 l 310 925 q 257 979 310 979 l 218 979 m 238 490 l 218 490 l 218 -21 l 65 -21 l 65 1132 l 257 1132 q 463 878 463 1132 l 463 756 q 378 526 463 599 l 464 -21 l 308 -21 l 238 490 m 279 1167 l 201 1167 l 43 1279 l 219 1279 l 240 1243 l 261 1279 l 440 1279 l 279 1167 z "},"Ů":{"ha":464,"x_min":65,"x_max":440,"o":"m 288 1132 l 440 1132 l 440 244 q 253 -21 440 -21 q 65 244 65 -21 l 65 1132 l 218 1132 l 218 175 q 253 132 218 132 q 288 175 288 132 l 288 1132 m 214 1229 q 225 1203 214 1214 q 251 1192 236 1192 q 278 1203 267 1192 q 289 1229 289 1214 q 278 1256 289 1244 q 251 1267 267 1267 q 225 1256 236 1267 q 214 1229 214 1244 m 153 1229 q 182 1299 153 1269 q 251 1329 211 1329 q 322 1299 292 1329 q 351 1229 351 1269 q 322 1160 351 1189 q 251 1131 292 1131 q 182 1160 211 1131 q 153 1229 153 1189 z "},"Ű":{"ha":464,"x_min":58,"x_max":506,"o":"m 288 1132 l 440 1132 l 440 244 q 253 -21 440 -21 q 65 244 65 -21 l 65 1132 l 218 1132 l 218 175 q 253 132 218 132 q 288 175 288 132 l 288 1132 m 318 1168 l 226 1168 l 374 1281 l 506 1281 l 318 1168 m 221 1281 l 328 1281 l 182 1168 l 58 1168 l 221 1281 z "},"Ţ":{"ha":383,"x_min":25,"x_max":400,"o":"m 25 1132 l 400 1132 l 400 979 l 289 979 l 289 -21 l 136 -21 l 136 979 l 25 979 l 25 1132 m 232 -135 q 231 -127 232 -131 q 231 -121 231 -124 l 231 -136 q 229 -143 231 -142 q 232 -135 232 -140 m 261 -3 q 270 -30 261 -18 q 291 -56 279 -42 q 312 -87 303 -69 q 321 -129 321 -104 q 229 -217 321 -217 q 140 -133 140 -217 l 140 -106 l 224 -106 q 207 -87 218 -94 q 172 -6 172 -57 l 172 29 l 261 29 l 261 -3 z "},"ŕ":{"ha":283,"x_min":63,"x_max":336,"o":"m 203 819 q 286 846 233 846 l 286 657 q 231 704 261 704 q 203 669 203 704 l 203 -21 l 65 -21 l 65 846 l 203 846 l 203 819 m 336 992 l 172 879 l 63 879 l 169 992 l 336 992 z "},"ă":{"ha":418,"x_min":65,"x_max":400,"o":"m 257 335 q 238 323 247 329 q 222 310 229 317 l 224 311 q 203 247 203 294 l 203 156 q 226 119 203 119 q 257 156 257 119 l 257 335 m 65 258 q 85 346 65 308 q 135 411 106 383 q 197 460 164 439 q 257 500 231 482 l 257 669 q 233 704 257 704 q 213 669 213 704 l 213 494 l 75 494 l 75 629 q 233 846 75 846 q 394 629 394 846 l 394 -21 l 257 -21 l 257 15 q 186 -21 229 -21 q 65 196 65 -21 l 65 258 m 400 992 q 233 879 350 879 q 78 992 96 879 l 210 992 q 235 936 210 936 q 260 992 260 936 l 400 992 z "},"ĺ":{"ha":203,"x_min":36,"x_max":310,"o":"m 53 1132 l 190 1132 l 190 -21 l 53 -21 l 53 1132 m 310 1281 l 146 1168 l 36 1168 l 143 1281 l 310 1281 z "},"ć":{"ha":414,"x_min":65,"x_max":396,"o":"m 258 669 q 229 704 258 704 q 203 669 203 704 l 203 156 q 229 119 203 119 q 258 156 258 119 l 258 335 l 396 335 l 396 196 q 229 -21 396 -21 q 65 196 65 -21 l 65 629 q 229 846 65 846 q 396 629 396 846 l 396 494 l 258 494 l 258 669 m 386 992 l 222 879 l 113 879 l 219 992 l 386 992 z "},"č":{"ha":414,"x_min":32,"x_max":429,"o":"m 258 669 q 229 704 258 704 q 203 669 203 704 l 203 156 q 229 119 203 119 q 258 156 258 119 l 258 335 l 396 335 l 396 196 q 229 -21 396 -21 q 65 196 65 -21 l 65 629 q 229 846 65 846 q 396 629 396 846 l 396 494 l 258 494 l 258 669 m 268 878 l 190 878 l 32 990 l 208 990 l 229 954 l 250 990 l 429 990 l 268 878 z "},"ę":{"ha":419,"x_min":65,"x_max":396,"o":"m 203 513 l 258 513 l 258 669 q 229 704 258 704 q 203 669 203 704 l 203 513 m 203 374 l 203 156 q 229 119 203 119 q 258 156 258 119 l 258 335 l 396 335 l 396 196 q 229 -21 396 -21 q 65 196 65 -21 l 65 629 q 229 846 65 846 q 396 629 396 846 l 396 374 l 203 374 m 156 -136 l 156 -121 q 154 -135 154 -124 q 156 -143 154 -142 l 156 -136 m 125 29 l 214 29 l 214 -6 q 178 -87 214 -58 q 161 -106 167 -94 l 246 -106 l 246 -133 q 157 -217 246 -217 q 65 -129 65 -217 q 74 -87 65 -104 q 95 -56 83 -69 q 116 -30 107 -42 q 125 -3 125 -18 l 125 29 z "},"ě":{"ha":419,"x_min":31,"x_max":428,"o":"m 203 513 l 258 513 l 258 669 q 229 704 258 704 q 203 669 203 704 l 203 513 m 203 374 l 203 156 q 229 119 203 119 q 258 156 258 119 l 258 335 l 396 335 l 396 196 q 229 -21 396 -21 q 65 196 65 -21 l 65 629 q 229 846 65 846 q 396 629 396 846 l 396 374 l 203 374 m 267 878 l 189 878 l 31 990 l 207 990 l 228 954 l 249 990 l 428 990 l 267 878 z "},"ď":{"ha":515,"x_min":65,"x_max":519,"o":"m 203 156 q 231 119 203 119 q 258 156 258 119 l 258 669 q 231 704 258 704 q 203 669 203 704 l 203 156 m 396 -21 l 258 -21 l 258 11 q 181 -21 224 -21 q 65 196 65 -21 l 65 629 q 193 846 65 846 q 258 821 239 846 l 258 1132 l 396 1132 l 396 -21 m 378 1133 l 519 1133 l 519 1001 q 418 879 519 879 l 394 879 l 394 944 q 428 976 424 943 l 378 976 l 378 1133 z "},"đ":{"ha":419,"x_min":65,"x_max":429,"o":"m 203 156 q 231 119 203 119 q 258 156 258 119 l 258 669 q 231 704 258 704 q 203 669 203 704 l 203 156 m 396 -21 l 258 -21 l 258 11 q 181 -21 224 -21 q 65 196 65 -21 l 65 629 q 193 846 65 846 q 258 821 239 846 l 258 1132 l 396 1132 l 396 -21 m 201 996 l 429 996 l 429 865 l 201 865 l 201 996 z "},"ń":{"ha":419,"x_min":65,"x_max":396,"o":"m 258 669 q 231 704 258 704 q 203 669 203 704 l 203 -21 l 65 -21 l 65 846 l 203 846 l 203 822 q 275 846 231 846 q 396 629 396 846 l 396 -21 l 258 -21 l 258 669 m 379 992 l 215 879 l 106 879 l 213 992 l 379 992 z "},"ň":{"ha":419,"x_min":65,"x_max":396,"o":"m 258 669 q 231 704 258 704 q 203 669 203 704 l 203 -21 l 65 -21 l 65 846 l 203 846 l 203 822 q 275 846 231 846 q 396 629 396 846 l 396 -21 l 258 -21 l 258 669 m 374 992 l 210 879 l 100 879 l 207 992 l 374 992 z "},"ő":{"ha":419,"x_min":57,"x_max":504,"o":"m 258 669 q 229 704 258 704 q 203 669 203 704 l 203 156 q 229 119 203 119 q 258 156 258 119 l 258 669 m 396 196 q 229 -21 396 -21 q 65 196 65 -21 l 65 629 q 229 846 65 846 q 396 629 396 846 l 396 196 m 317 879 l 225 879 l 372 992 l 504 992 l 317 879 m 219 992 l 326 992 l 181 879 l 57 879 l 219 992 z "},"ř":{"ha":283,"x_min":-24,"x_max":374,"o":"m 203 819 q 286 846 233 846 l 286 657 q 231 704 261 704 q 203 669 203 704 l 203 -21 l 65 -21 l 65 846 l 203 846 l 203 819 m 213 878 l 135 878 l -24 990 l 153 990 l 174 954 l 194 990 l 374 990 l 213 878 z "},"ů":{"ha":419,"x_min":65,"x_max":396,"o":"m 203 156 q 231 121 203 121 q 258 156 258 121 l 258 846 l 396 846 l 396 -21 l 258 -21 l 258 3 q 186 -21 231 -21 q 65 196 65 -21 l 65 846 l 203 846 l 203 156 m 193 940 q 204 914 193 925 q 231 903 215 903 q 257 914 246 903 q 268 940 268 925 q 257 967 268 956 q 231 978 246 978 q 204 967 215 978 q 193 940 193 956 m 132 940 q 161 1010 132 981 q 231 1040 190 1040 q 301 1010 271 1040 q 331 940 331 981 q 301 871 331 900 q 231 842 271 842 q 161 871 190 842 q 132 940 132 900 z "},"ű":{"ha":419,"x_min":42,"x_max":489,"o":"m 203 156 q 231 121 203 121 q 258 156 258 121 l 258 846 l 396 846 l 396 -21 l 258 -21 l 258 3 q 186 -21 231 -21 q 65 196 65 -21 l 65 846 l 203 846 l 203 156 m 301 879 l 210 879 l 357 992 l 489 992 l 301 879 m 204 992 l 311 992 l 165 879 l 42 879 l 204 992 z "},"ţ":{"ha":260,"x_min":28,"x_max":275,"o":"m 28 846 l 67 846 l 67 1132 l 204 1132 l 204 846 l 249 846 l 249 704 l 204 704 l 204 156 q 256 121 204 121 l 256 -21 q 67 196 67 -21 l 67 704 l 28 704 l 28 846 m 186 -135 q 185 -127 186 -131 q 185 -121 185 -124 l 185 -136 q 183 -143 185 -142 q 186 -135 186 -140 m 215 -3 q 224 -30 215 -18 q 245 -56 233 -42 q 266 -87 257 -69 q 275 -129 275 -104 q 183 -217 275 -217 q 94 -133 94 -217 l 94 -106 l 178 -106 q 161 -87 172 -94 q 126 -6 126 -57 l 126 29 l 215 29 l 215 -3 z "},"Ğ":{"ha":460,"x_min":65,"x_max":446,"o":"m 247 532 l 444 532 l 444 -31 l 372 35 q 253 -21 333 -21 q 65 244 65 -21 l 65 867 q 254 1132 65 1132 q 446 867 446 1132 l 446 744 l 297 744 l 297 936 q 254 979 297 979 q 218 936 218 979 l 218 175 q 253 132 218 132 q 296 175 296 132 l 296 381 l 247 381 l 247 532 m 421 1281 q 254 1168 371 1168 q 99 1281 117 1168 l 231 1281 q 256 1225 231 1225 q 281 1281 281 1225 l 421 1281 z "},"İ":{"ha":238,"x_min":74,"x_max":211,"o":"m 211 -21 l 74 -21 l 74 846 l 211 846 l 211 -21 m 88 992 l 204 992 l 204 879 l 88 879 l 88 992 z "},"ğ":{"ha":419,"x_min":21,"x_max":396,"o":"m 203 175 q 231 140 203 140 q 258 167 257 140 l 258 669 q 231 706 258 706 q 203 669 203 706 l 203 175 m 229 -76 q 258 -40 258 -76 l 258 22 q 181 -1 235 -1 q 65 215 65 -1 l 65 629 q 183 846 65 846 q 258 814 231 846 l 258 846 l 396 846 l 396 0 q 229 -217 396 -217 q 64 -24 82 -217 l 201 -24 q 229 -76 204 -76 m 210 992 l 317 879 l 207 879 l 21 992 l 210 992 z "},"Ŗ":{"ha":465,"x_min":65,"x_max":464,"o":"m 218 979 l 218 643 l 258 643 q 310 697 310 643 l 310 925 q 257 979 310 979 l 218 979 m 238 490 l 218 490 l 218 -21 l 65 -21 l 65 1132 l 257 1132 q 463 878 463 1132 l 463 756 q 378 526 463 599 l 464 -21 l 308 -21 l 238 490 m 264 -135 q 263 -127 264 -131 q 263 -121 263 -124 l 263 -136 q 261 -143 263 -142 q 264 -135 264 -140 m 293 -3 q 302 -30 293 -18 q 323 -56 311 -42 q 344 -87 335 -69 q 353 -129 353 -104 q 261 -217 353 -217 q 172 -133 172 -217 l 172 -106 l 256 -106 q 239 -87 250 -94 q 204 -6 204 -57 l 204 29 l 293 29 l 293 -3 z "},"ŗ":{"ha":283,"x_min":57,"x_max":286,"o":"m 203 819 q 286 846 233 846 l 286 657 q 231 704 261 704 q 203 669 203 704 l 203 -21 l 65 -21 l 65 846 l 203 846 l 203 819 m 149 -135 q 148 -127 149 -131 q 147 -121 147 -124 l 147 -136 q 146 -143 147 -142 q 149 -135 149 -140 m 178 -3 q 187 -30 178 -18 q 208 -56 196 -42 q 228 -87 219 -69 q 238 -129 238 -104 q 146 -217 238 -217 q 57 -133 57 -217 l 57 -106 l 140 -106 q 124 -87 135 -94 q 89 -6 89 -57 l 89 29 l 178 29 l 178 -3 z "},"Į":{"ha":242,"x_min":42,"x_max":222,"o":"m 65 -21 l 65 1132 l 218 1132 l 218 -21 l 65 -21 m 132 -136 l 132 -121 q 131 -135 131 -124 q 132 -143 131 -142 l 132 -136 m 101 29 l 190 29 l 190 -6 q 154 -87 190 -58 q 138 -106 143 -94 l 222 -106 l 222 -133 q 133 -217 222 -217 q 42 -129 42 -217 q 51 -87 42 -104 q 72 -56 60 -69 q 92 -30 83 -42 q 101 -3 101 -18 l 101 29 z "},"Ā":{"ha":449,"x_min":18,"x_max":472,"o":"m 213 307 l 276 307 l 253 518 l 244 642 l 236 517 l 213 307 m 18 -21 l 171 1132 l 319 1132 l 472 -21 l 318 -21 l 296 146 l 192 146 l 172 -21 l 18 -21 m 124 1308 l 365 1308 l 365 1196 l 124 1196 l 124 1308 z "},"Ē":{"ha":396,"x_min":65,"x_max":389,"o":"m 218 490 l 218 132 l 389 132 l 389 -21 l 65 -21 l 65 1132 l 389 1132 l 389 979 l 218 979 l 218 643 l 315 643 l 315 490 l 218 490 m 104 1308 l 346 1308 l 346 1196 l 104 1196 l 104 1308 z "},"Ė":{"ha":396,"x_min":65,"x_max":389,"o":"m 218 490 l 218 132 l 389 132 l 389 -21 l 65 -21 l 65 1132 l 389 1132 l 389 979 l 218 979 l 218 643 l 315 643 l 315 490 l 218 490 m 176 1281 l 293 1281 l 293 1168 l 176 1168 l 176 1281 z "},"Ģ":{"ha":460,"x_min":65,"x_max":446,"o":"m 247 532 l 444 532 l 444 -31 l 372 35 q 253 -21 333 -21 q 65 244 65 -21 l 65 867 q 254 1132 65 1132 q 446 867 446 1132 l 446 744 l 297 744 l 297 936 q 254 979 297 979 q 218 936 218 979 l 218 175 q 253 132 218 132 q 296 175 296 132 l 296 381 l 247 381 l 247 532 m 263 -135 q 262 -127 263 -131 q 261 -121 261 -124 l 261 -136 q 260 -143 261 -142 q 263 -135 263 -140 m 292 -3 q 301 -30 292 -18 q 322 -56 310 -42 q 342 -87 333 -69 q 351 -129 351 -104 q 260 -217 351 -217 q 171 -133 171 -217 l 171 -106 l 254 -106 q 238 -87 249 -94 q 203 -6 203 -57 l 203 29 l 292 29 l 292 -3 z "},"Ķ":{"ha":492,"x_min":65,"x_max":518,"o":"m 65 -21 l 65 1132 l 218 1132 l 218 742 l 346 1132 l 507 1132 l 313 569 l 518 -21 l 356 -21 l 218 396 l 218 -21 l 65 -21 m 294 -135 q 294 -127 294 -131 q 293 -121 293 -124 l 293 -136 q 292 -143 293 -142 q 294 -135 294 -140 m 324 -3 q 333 -30 324 -18 q 353 -56 342 -42 q 374 -87 365 -69 q 383 -129 383 -104 q 292 -217 383 -217 q 203 -133 203 -217 l 203 -106 l 286 -106 q 269 -87 281 -94 q 235 -6 235 -57 l 235 29 l 324 29 l 324 -3 z "},"Ī":{"ha":242,"x_min":22,"x_max":264,"o":"m 65 -21 l 65 1132 l 218 1132 l 218 -21 l 65 -21 m 22 1308 l 264 1308 l 264 1196 l 22 1196 l 22 1308 z "},"Ļ":{"ha":383,"x_min":65,"x_max":389,"o":"m 218 132 l 389 132 l 389 -21 l 65 -21 l 65 1132 l 218 1132 l 218 132 m 221 -135 q 220 -127 221 -131 q 219 -121 219 -124 l 219 -136 q 218 -143 219 -142 q 221 -135 221 -140 m 250 -3 q 259 -30 250 -18 q 280 -56 268 -42 q 301 -87 292 -69 q 310 -129 310 -104 q 218 -217 310 -217 q 129 -133 129 -217 l 129 -106 l 213 -106 q 196 -87 207 -94 q 161 -6 161 -57 l 161 29 l 250 29 l 250 -3 z "},"Ņ":{"ha":500,"x_min":65,"x_max":476,"o":"m 232 386 l 207 565 l 207 -21 l 65 -21 l 65 1132 l 238 1132 l 311 722 l 335 547 l 335 1132 l 476 1132 l 476 -21 l 304 -21 l 232 386 m 265 -135 q 265 -127 265 -131 q 264 -121 264 -124 l 264 -136 q 263 -143 264 -142 q 265 -135 265 -140 m 294 -3 q 303 -30 294 -18 q 324 -56 313 -42 q 345 -87 336 -69 q 354 -129 354 -104 q 263 -217 354 -217 q 174 -133 174 -217 l 174 -106 l 257 -106 q 240 -87 251 -94 q 206 -6 206 -57 l 206 29 l 294 29 l 294 -3 z "},"Ō":{"ha":464,"x_min":65,"x_max":440,"o":"m 288 936 q 253 979 288 979 q 218 936 218 979 l 218 175 q 253 132 218 132 q 288 175 288 132 l 288 936 m 440 244 q 253 -21 440 -21 q 65 244 65 -21 l 65 867 q 253 1132 65 1132 q 440 867 440 1132 l 440 244 m 133 1308 l 375 1308 l 375 1196 l 133 1196 l 133 1308 z "},"Ų":{"ha":464,"x_min":65,"x_max":440,"o":"m 288 1132 l 440 1132 l 440 244 q 253 -21 440 -21 q 65 244 65 -21 l 65 1132 l 218 1132 l 218 175 q 253 132 218 132 q 288 175 288 132 l 288 1132 m 235 -136 l 235 -121 q 233 -135 233 -124 q 235 -143 233 -142 l 235 -136 m 204 29 l 293 29 l 293 -6 q 257 -87 293 -58 q 240 -106 246 -94 l 325 -106 l 325 -133 q 236 -217 325 -217 q 144 -129 144 -217 q 153 -87 144 -104 q 174 -56 163 -69 q 195 -30 186 -42 q 204 -3 204 -18 l 204 29 z "},"Ū":{"ha":464,"x_min":65,"x_max":440,"o":"m 288 1132 l 440 1132 l 440 244 q 253 -21 440 -21 q 65 244 65 -21 l 65 1132 l 218 1132 l 218 175 q 253 132 218 132 q 288 175 288 132 l 288 1132 m 131 1308 l 372 1308 l 372 1196 l 131 1196 l 131 1308 z "},"į":{"ha":226,"x_min":29,"x_max":210,"o":"m 203 939 l 65 939 l 65 1132 l 203 1132 l 203 939 m 203 -21 l 65 -21 l 65 846 l 203 846 l 203 -21 m 119 -136 l 119 -121 q 118 -135 118 -124 q 119 -143 118 -142 l 119 -136 m 89 29 l 178 29 l 178 -6 q 142 -87 178 -58 q 125 -106 131 -94 l 210 -106 l 210 -133 q 121 -217 210 -217 q 29 -129 29 -217 q 38 -87 29 -104 q 59 -56 47 -69 q 80 -30 71 -42 q 89 -3 89 -18 l 89 29 z "},"ā":{"ha":418,"x_min":65,"x_max":394,"o":"m 257 335 q 238 323 247 329 q 222 310 229 317 l 224 311 q 203 247 203 294 l 203 156 q 226 119 203 119 q 257 156 257 119 l 257 335 m 65 258 q 85 346 65 308 q 135 411 106 383 q 197 460 164 439 q 257 500 231 482 l 257 669 q 233 704 257 704 q 213 669 213 704 l 213 494 l 75 494 l 75 629 q 233 846 75 846 q 394 629 394 846 l 394 -21 l 257 -21 l 257 15 q 186 -21 229 -21 q 65 196 65 -21 l 65 258 m 110 1019 l 351 1019 l 351 907 l 110 907 l 110 1019 z "},"ē":{"ha":419,"x_min":65,"x_max":396,"o":"m 203 513 l 258 513 l 258 669 q 229 704 258 704 q 203 669 203 704 l 203 513 m 203 374 l 203 156 q 229 119 203 119 q 258 156 258 119 l 258 335 l 396 335 l 396 196 q 229 -21 396 -21 q 65 196 65 -21 l 65 629 q 229 846 65 846 q 396 629 396 846 l 396 374 l 203 374 m 107 1019 l 349 1019 l 349 907 l 107 907 l 107 1019 z "},"ė":{"ha":419,"x_min":65,"x_max":396,"o":"m 203 513 l 258 513 l 258 669 q 229 704 258 704 q 203 669 203 704 l 203 513 m 203 374 l 203 156 q 229 119 203 119 q 258 156 258 119 l 258 335 l 396 335 l 396 196 q 229 -21 396 -21 q 65 196 65 -21 l 65 629 q 229 846 65 846 q 396 629 396 846 l 396 374 l 203 374 m 171 992 l 288 992 l 288 879 l 171 879 l 171 992 z "},"ģ":{"ha":419,"x_min":64,"x_max":396,"o":"m 203 175 q 231 140 203 140 q 258 167 257 140 l 258 669 q 231 706 258 706 q 203 669 203 706 l 203 175 m 229 -76 q 258 -40 258 -76 l 258 22 q 181 -1 235 -1 q 65 215 65 -1 l 65 629 q 183 846 65 846 q 258 814 231 846 l 258 846 l 396 846 l 396 0 q 229 -217 396 -217 q 64 -24 82 -217 l 201 -24 q 229 -76 204 -76 m 299 838 l 157 838 l 157 969 q 258 1092 157 1092 l 282 1092 l 282 1015 q 249 994 254 1015 l 299 994 l 299 838 z "},"ķ":{"ha":414,"x_min":65,"x_max":436,"o":"m 65 1132 l 203 1132 l 203 549 l 229 656 l 292 846 l 436 846 l 285 408 l 435 -21 l 289 -21 l 226 168 l 203 269 l 203 -21 l 65 -21 l 65 1132 m 243 -135 q 242 -127 243 -131 q 242 -121 242 -124 l 242 -136 q 240 -143 242 -142 q 243 -135 243 -140 m 272 -3 q 281 -30 272 -18 q 302 -56 290 -42 q 323 -87 314 -69 q 332 -129 332 -104 q 240 -217 332 -217 q 151 -133 151 -217 l 151 -106 l 235 -106 q 218 -87 229 -94 q 183 -6 183 -57 l 183 29 l 272 29 l 272 -3 z "},"ī":{"ha":238,"x_min":24,"x_max":265,"o":"m 211 -21 l 74 -21 l 74 846 l 211 846 l 211 -21 m 24 1019 l 265 1019 l 265 907 l 24 907 l 24 1019 z "},"ļ":{"ha":203,"x_min":46,"x_max":226,"o":"m 53 1132 l 190 1132 l 190 -21 l 53 -21 l 53 1132 m 138 -135 q 137 -127 138 -131 q 136 -121 136 -124 l 136 -136 q 135 -143 136 -142 q 138 -135 138 -140 m 167 -3 q 176 -30 167 -18 q 197 -56 185 -42 q 217 -87 208 -69 q 226 -129 226 -104 q 135 -217 226 -217 q 46 -133 46 -217 l 46 -106 l 129 -106 q 113 -87 124 -94 q 78 -6 78 -57 l 78 29 l 167 29 l 167 -3 z "},"ņ":{"ha":419,"x_min":65,"x_max":396,"o":"m 258 669 q 231 704 258 704 q 203 669 203 704 l 203 -21 l 65 -21 l 65 846 l 203 846 l 203 822 q 275 846 231 846 q 396 629 396 846 l 396 -21 l 258 -21 l 258 669 m 239 -135 q 238 -127 239 -131 q 238 -121 238 -124 l 238 -136 q 236 -143 238 -142 q 239 -135 239 -140 m 268 -3 q 277 -30 268 -18 q 298 -56 286 -42 q 319 -87 310 -69 q 328 -129 328 -104 q 236 -217 328 -217 q 147 -133 147 -217 l 147 -106 l 231 -106 q 214 -87 225 -94 q 179 -6 179 -57 l 179 29 l 268 29 l 268 -3 z "},"ō":{"ha":419,"x_min":65,"x_max":396,"o":"m 258 669 q 229 704 258 704 q 203 669 203 704 l 203 156 q 229 119 203 119 q 258 156 258 119 l 258 669 m 396 196 q 229 -21 396 -21 q 65 196 65 -21 l 65 629 q 229 846 65 846 q 396 629 396 846 l 396 196 m 111 1019 l 353 1019 l 353 907 l 111 907 l 111 1019 z "},"ų":{"ha":419,"x_min":65,"x_max":396,"o":"m 203 156 q 231 121 203 121 q 258 156 258 121 l 258 846 l 396 846 l 396 -21 l 258 -21 l 258 3 q 186 -21 231 -21 q 65 196 65 -21 l 65 846 l 203 846 l 203 156 m 193 -136 l 193 -121 q 192 -135 192 -124 q 193 -143 192 -142 l 193 -136 m 163 29 l 251 29 l 251 -6 q 215 -87 251 -58 q 199 -106 204 -94 l 283 -106 l 283 -133 q 194 -217 283 -217 q 103 -129 103 -217 q 112 -87 103 -104 q 133 -56 121 -69 q 153 -30 144 -42 q 163 -3 163 -18 l 163 29 z "},"ū":{"ha":419,"x_min":65,"x_max":396,"o":"m 203 156 q 231 121 203 121 q 258 156 258 121 l 258 846 l 396 846 l 396 -21 l 258 -21 l 258 3 q 186 -21 231 -21 q 65 196 65 -21 l 65 846 l 203 846 l 203 156 m 107 1019 l 349 1019 l 349 907 l 107 907 l 107 1019 z "}," ":{"ha":171,"x_min":0,"x_max":0,"o":""}}}
